<svg viewBox="0 0 1277.0833740234375 400" xmlns="http://www.w3.org/2000/svg"><g><g><g><g><g><line x1="39.98800086975098" y1="378.57999897003174" x2="34.98800086975098" y2="378.57999897003174" style="visibility: inherit;" fill="rgb(0, 0, 0)" stroke="rgb(204, 204, 204)" stroke-width="1px"></line><line x1="39.98800086975098" y1="331.25749909877777" x2="34.98800086975098" y2="331.25749909877777" style="visibility: inherit;" fill="rgb(0, 0, 0)" stroke="rgb(204, 204, 204)" stroke-width="1px"></line><line x1="39.98800086975098" y1="283.9349992275238" x2="34.98800086975098" y2="283.9349992275238" style="visibility: inherit;" fill="rgb(0, 0, 0)" stroke="rgb(204, 204, 204)" stroke-width="1px"></line><line x1="39.98800086975098" y1="236.61249935626984" x2="34.98800086975098" y2="236.61249935626984" style="visibility: inherit;" fill="rgb(0, 0, 0)" stroke="rgb(204, 204, 204)" stroke-width="1px"></line><line x1="39.98800086975098" y1="189.28999948501587" x2="34.98800086975098" y2="189.28999948501587" style="visibility: inherit;" fill="rgb(0, 0, 0)" stroke="rgb(204, 204, 204)" stroke-width="1px"></line><line x1="39.98800086975098" y1="141.9674996137619" x2="34.98800086975098" y2="141.9674996137619" style="visibility: inherit;" fill="rgb(0, 0, 0)" stroke="rgb(204, 204, 204)" stroke-width="1px"></line><line x1="39.98800086975098" y1="94.64499974250793" x2="34.98800086975098" y2="94.64499974250793" style="visibility: inherit;" fill="rgb(0, 0, 0)" stroke="rgb(204, 204, 204)" stroke-width="1px"></line><line x1="39.98800086975098" y1="47.32249987125397" x2="34.98800086975098" y2="47.32249987125397" style="visibility: inherit;" fill="rgb(0, 0, 0)" stroke="rgb(204, 204, 204)" stroke-width="1px"></line><line x1="39.98800086975098" y1="0" x2="34.98800086975098" y2="0" style="visibility: inherit;" fill="rgb(0, 0, 0)" stroke="rgb(204, 204, 204)" stroke-width="1px"></line></g><g transform="translate(29.988000869750977, 0)"><text style="text-anchor: end; visibility: hidden; font-family: &quot;Helvetica Neue&quot;, sans-serif; font-size: 12px; font-weight: 200;" x="0" y="378.57999897003174" dx="0em" dy="0.3em" fill="rgb(50, 49, 63)" stroke="none" stroke-width="1px">-50</text><text style="text-anchor: end; visibility: inherit; font-family: &quot;Helvetica Neue&quot;, sans-serif; font-size: 12px; font-weight: 200;" x="0" y="331.25749909877777" dx="0em" dy="0.3em" fill="rgb(50, 49, 63)" stroke="none" stroke-width="1px">0</text><text style="text-anchor: end; visibility: inherit; font-family: &quot;Helvetica Neue&quot;, sans-serif; font-size: 12px; font-weight: 200;" x="0" y="283.9349992275238" dx="0em" dy="0.3em" fill="rgb(50, 49, 63)" stroke="none" stroke-width="1px">50</text><text style="text-anchor: end; visibility: inherit; font-family: &quot;Helvetica Neue&quot;, sans-serif; font-size: 12px; font-weight: 200;" x="0" y="236.61249935626984" dx="0em" dy="0.3em" fill="rgb(50, 49, 63)" stroke="none" stroke-width="1px">100</text><text style="text-anchor: end; visibility: inherit; font-family: &quot;Helvetica Neue&quot;, sans-serif; font-size: 12px; font-weight: 200;" x="0" y="189.28999948501587" dx="0em" dy="0.3em" fill="rgb(50, 49, 63)" stroke="none" stroke-width="1px">150</text><text style="text-anchor: end; visibility: inherit; font-family: &quot;Helvetica Neue&quot;, sans-serif; font-size: 12px; font-weight: 200;" x="0" y="141.9674996137619" dx="0em" dy="0.3em" fill="rgb(50, 49, 63)" stroke="none" stroke-width="1px">200</text><text style="text-anchor: end; visibility: inherit; font-family: &quot;Helvetica Neue&quot;, sans-serif; font-size: 12px; font-weight: 200;" x="0" y="94.64499974250793" dx="0em" dy="0.3em" fill="rgb(50, 49, 63)" stroke="none" stroke-width="1px">250</text><text style="text-anchor: end; visibility: inherit; font-family: &quot;Helvetica Neue&quot;, sans-serif; font-size: 12px; font-weight: 200;" x="0" y="47.32249987125397" dx="0em" dy="0.3em" fill="rgb(50, 49, 63)" stroke="none" stroke-width="1px">300</text><text style="text-anchor: end; visibility: hidden; font-family: &quot;Helvetica Neue&quot;, sans-serif; font-size: 12px; font-weight: 200;" x="0" y="0" dx="0em" dy="0.3em" fill="rgb(50, 49, 63)" stroke="none" stroke-width="1px">350</text></g><line x1="39.98800086975098" y1="0" x2="39.98800086975098" y2="378.57999897003174" fill="rgb(0, 0, 0)" stroke="rgb(204, 204, 204)" stroke-width="1px"></line></g></g><g transform="translate(39, 0)" clip-path="url(#clip_0)"><clipPath id="clip_0"><rect width="1237" height="378"></rect></clipPath><g><g><g><line x1="0" y1="0" x2="0" y2="378.57999897003174" fill="rgb(0, 0, 0)" stroke="rgb(60, 60, 60)" stroke-width="1px" opacity="0.25"></line><line x1="103.09099992752074" y1="0" x2="103.09099992752074" y2="378.57999897003174" fill="rgb(0, 0, 0)" stroke="rgb(60, 60, 60)" stroke-width="1px" opacity="0.25"></line><line x1="206.18199985504148" y1="0" x2="206.18199985504148" y2="378.57999897003174" fill="rgb(0, 0, 0)" stroke="rgb(60, 60, 60)" stroke-width="1px" opacity="0.25"></line><line x1="309.27299978256224" y1="0" x2="309.27299978256224" y2="378.57999897003174" fill="rgb(0, 0, 0)" stroke="rgb(60, 60, 60)" stroke-width="1px" opacity="0.25"></line><line x1="412.36399971008296" y1="0" x2="412.36399971008296" y2="378.57999897003174" fill="rgb(0, 0, 0)" stroke="rgb(60, 60, 60)" stroke-width="1px" opacity="0.25"></line><line x1="515.4549996376038" y1="0" x2="515.4549996376038" y2="378.57999897003174" fill="rgb(0, 0, 0)" stroke="rgb(60, 60, 60)" stroke-width="1px" opacity="0.25"></line><line x1="618.5459995651245" y1="0" x2="618.5459995651245" y2="378.57999897003174" fill="rgb(0, 0, 0)" stroke="rgb(60, 60, 60)" stroke-width="1px" opacity="0.25"></line><line x1="721.6369994926453" y1="0" x2="721.6369994926453" y2="378.57999897003174" fill="rgb(0, 0, 0)" stroke="rgb(60, 60, 60)" stroke-width="1px" opacity="0.25"></line><line x1="824.7279994201659" y1="0" x2="824.7279994201659" y2="378.57999897003174" fill="rgb(0, 0, 0)" stroke="rgb(60, 60, 60)" stroke-width="1px" opacity="0.25"></line><line x1="927.8189993476867" y1="0" x2="927.8189993476867" y2="378.57999897003174" fill="rgb(0, 0, 0)" stroke="rgb(60, 60, 60)" stroke-width="1px" opacity="0.25"></line><line x1="1030.9099992752076" y1="0" x2="1030.9099992752076" y2="378.57999897003174" fill="rgb(0, 0, 0)" stroke="rgb(60, 60, 60)" stroke-width="1px" opacity="0.25"></line><line x1="1134.000999202728" y1="0" x2="1134.000999202728" y2="378.57999897003174" fill="rgb(0, 0, 0)" stroke="rgb(60, 60, 60)" stroke-width="1px" opacity="0.25"></line><line x1="1237.091999130249" y1="0" x2="1237.091999130249" y2="378.57999897003174" fill="rgb(0, 0, 0)" stroke="rgb(60, 60, 60)" stroke-width="1px" opacity="0.25"></line></g><g><line x1="0" y1="378.57999897003174" x2="1237.091999130249" y2="378.57999897003174" fill="rgb(0, 0, 0)" stroke="rgb(60, 60, 60)" stroke-width="1px" opacity="0.25"></line><line x1="0" y1="331.25749909877777" x2="1237.091999130249" y2="331.25749909877777" fill="rgb(0, 0, 0)" stroke="rgb(60, 60, 60)" stroke-width="1px" opacity="0.25"></line><line x1="0" y1="283.9349992275238" x2="1237.091999130249" y2="283.9349992275238" fill="rgb(0, 0, 0)" stroke="rgb(60, 60, 60)" stroke-width="1px" opacity="0.25"></line><line x1="0" y1="236.61249935626984" x2="1237.091999130249" y2="236.61249935626984" fill="rgb(0, 0, 0)" stroke="rgb(60, 60, 60)" stroke-width="1px" opacity="0.25"></line><line x1="0" y1="189.28999948501587" x2="1237.091999130249" y2="189.28999948501587" fill="rgb(0, 0, 0)" stroke="rgb(60, 60, 60)" stroke-width="1px" opacity="0.25"></line><line x1="0" y1="141.9674996137619" x2="1237.091999130249" y2="141.9674996137619" fill="rgb(0, 0, 0)" stroke="rgb(60, 60, 60)" stroke-width="1px" opacity="0.25"></line><line x1="0" y1="94.64499974250793" x2="1237.091999130249" y2="94.64499974250793" fill="rgb(0, 0, 0)" stroke="rgb(60, 60, 60)" stroke-width="1px" opacity="0.25"></line><line x1="0" y1="47.32249987125397" x2="1237.091999130249" y2="47.32249987125397" fill="rgb(0, 0, 0)" stroke="rgb(60, 60, 60)" stroke-width="1px" opacity="0.25"></line><line x1="0" y1="0" x2="1237.091999130249" y2="0" fill="rgb(0, 0, 0)" stroke="rgb(60, 60, 60)" stroke-width="1px" opacity="0.25"></line></g></g></g><g><g><line x1="0" y1="331.25749909877777" x2="1237.091999130249" y2="331.25749909877777" fill="rgb(0, 0, 0)" stroke="rgb(153, 153, 153)" stroke-width="1.5px"></line></g></g><g><g><line x1="103.09099992752074" y1="0" x2="103.09099992752074" y2="378.57999897003174" fill="rgb(0, 0, 0)" stroke="rgb(153, 153, 153)" stroke-width="1.5px"></line></g></g><g><g><g><g><g><path style="fill: none;" stroke="rgb(0, 153, 136)" stroke-width="2px" d="M105.15281992607117,330.04179693649945L107.21463992462158,326.79367979308057L109.27645992317198,323.95480682757653L111.3382799217224,321.16901200359354L113.40009992027281,315.3215158478371L115.46191991882324,306.59137715098063L117.52373991737365,303.0130463486431L119.58555991592407,296.84786931797277L121.64737991447447,293.64075109111L123.7091999130249,297.73677282755546L125.77101991157531,297.56087315457205L127.83283991012573,282.0105513808155L129.89465990867615,292.5312689583558L131.95647990722657,292.28513217046645L134.01829990577698,292.0809412446609L136.08011990432738,283.38377110001807L138.1419399028778,279.22641193450215L140.2037599014282,272.5340828635446L142.26557989997863,268.92489379961046L144.32739989852905,265.8840318133308L146.38921989707947,277.3199187075341L148.45103989562986,281.0956492352486L150.5128598941803,260.7408293553996L152.5746798927307,264.8293269761124L154.63649989128112,270.4558852718857L156.69831988983154,274.9063636235777L158.76013988838193,256.1121551034661L160.82195988693238,281.3645280600862L162.88377988548277,267.17074947454876L164.9455998840332,274.39323626062435L167.00741988258363,267.9376893787733L169.06923988113402,281.7791956532955L171.13105987968444,264.7663901308856L173.19287987823486,274.94372425198554L175.25469987678525,266.30173576994287L177.3165198753357,226.76941793888093L179.3783398738861,255.61109376487872L181.4401598724365,263.9489260061413L183.50197987098693,253.9848377447517L185.56379986953735,265.3546936636021L187.62561986808777,267.6425375260149L189.68743986663816,252.2632160850069L191.74925986518858,249.2866990078387L193.81107986373902,248.73540950318926L195.87289986228942,260.2737492918968L197.93471986083983,247.88969022982485L199.99653985939023,242.55496220021016L202.05835985794064,239.2765778886795L204.1201798564911,211.62218875111722L206.18199985504148,227.51329447875776L208.2438198535919,225.96493688523768L210.30563985214235,252.0855256435958L212.36745985069274,240.713785085392L214.42927984924316,224.0665346099765L216.49109984779355,232.2373993578731L218.55291984634397,245.000003758881L220.61473984489442,221.23751764036294L222.6765598434448,216.6079913292581L224.73837984199523,226.1833456458587L226.80019984054562,202.31008461423565L228.86201983909606,231.9112773204913L230.92383983764648,254.8600541512909L232.98565983619687,240.74883504486084L235.0474798347473,223.85232837848832L237.10929983329774,225.9397650354832L239.17111983184813,218.3886939054377L241.23293983039855,241.35977591233933L243.29475982894894,232.36149672157967L245.3565798274994,260.41073585577885L247.4183998260498,240.2963771832378L249.4802198246002,245.29436131919164L251.54203982315062,216.2155386516454L253.603859821701,202.58537193495886L255.66567982025146,214.37092441678047L257.7274998188019,265.0920428136392L259.7893198173523,233.56664776925L261.8511398159027,233.910540294941L263.91295981445313,238.35274356349515L265.9747798130035,219.9627071450214L268.03659981155397,233.25841175362436L270.09841981010436,225.96029388483834L272.16023980865475,211.20237630909836L274.2220598072052,224.20150655937735L276.2838798057556,191.87355842574092L278.34569980430604,217.18348509104388L280.4075198028564,216.22267284199467L282.4693398014068,236.5105771935375L284.53115979995727,211.18454083322527L286.59297979850766,238.83865557885102L288.6547997970581,260.1367627280148L290.7166197956085,203.44057939265414L292.77843979415894,190.23644948244095L294.84025979270933,191.2576207366818L296.9020797912597,219.75285508031521L298.96389978981017,224.71427288030895L301.0257197883606,222.82874536354237L303.087539786911,229.90714027874833L305.1493597854614,211.64232767508892L307.2111797840118,219.2890821617314L309.27299978256224,231.96475486474887L311.3348197811126,200.71192488423912L313.3966397796631,204.8363100819111L315.45845977821347,212.44501073946398L317.52027977676386,190.0979393212272L319.58209977531436,197.5219164387858L321.64391977386475,206.26007207373462L323.70573977241514,190.01634382431783L325.76755977096553,184.14519400050824L327.829379769516,190.2785180988121L329.8911997680664,168.79188202674516L331.95301976661676,218.02766632539576L334.01483976516727,207.46570691771407L336.07665976371766,161.7077465433938L338.13847976226805,198.52734626087954L340.2002997608185,211.25478516897167L342.2621197593689,248.0135781891588L344.3239397579193,204.39679196634663L346.3857597564697,198.70717407105923L348.4475797550201,164.62821545710972L350.5093997535705,187.74125918695276L352.5712197521209,191.7507752549934L354.6330397506714,201.42176238230795L356.6948597492218,124.08635914574691L358.7566797477722,152.64463864721358L360.81849974632263,173.96773712512095L362.880319744873,185.15793131312165L364.9421397434234,185.35859846879515L367.00395974197386,204.82412130325773L369.0657797405243,161.64369768874016L371.1275997390747,152.28379880902293L373.18941973762514,151.14520224763697L375.25123973617553,181.61608019665897L377.3130597347259,194.48496092718122L379.3748797332763,143.4547761180469L381.43669973182676,126.57191684009553L383.49851973037715,181.25730551883257L385.56033972892754,141.90440391004563L387.62215972747805,153.2413833423979L389.68397972602844,160.67233579181624L391.74579972457883,151.02637609744755L393.8076197231293,161.36972456097604L395.86943972167967,196.95393957189233L397.93125972023006,222.0493783929302L399.99307971878045,214.27628086120606L402.0548997173309,188.75906552955112L404.1167197158813,179.48574452664306L406.17853971443174,134.76874050935402L408.2403597129822,221.9775815764904L410.3021797115326,204.0356921779003L412.36399971008296,161.50117274024487L414.4258197086334,180.1935601893902L416.4876397071838,179.6408192958134L418.5494597057342,165.34195220901316L420.6112797042847,151.14520224763697L422.6730997028351,171.43651483586484L424.7349197013855,224.4776603809527L426.79673969993587,201.7790206836431L428.8585596984863,162.07378538669727L430.9203796970367,159.679629090568L432.9821996955871,202.0570085986888L435.04401969413755,191.5614737021637L437.10583969268794,155.4683338574269L439.1676596912383,147.89526082657764L441.22947968978883,132.3022313920715L443.2912996883392,170.81056906196355L445.3531196868896,188.77733425585035L447.41493968544006,178.2875182649493L449.47675968399045,243.50975226833702L451.53857968254084,175.87406788317918L453.60039968109123,195.35177949629514L455.66221967964174,190.92809046261493L457.7240396781921,203.9599744451046L459.7858596767425,186.24784496829847L461.84767967529297,163.9205297694904L463.90949967384336,156.34331197623177L465.97131967239375,159.75518796487418L468.0331396709442,208.98799005642533L470.0949596694946,157.4842914149611L472.156779668045,161.5938883314233L474.2185996665955,157.28976197365682L476.28041966514587,176.25980517918785L478.34223966369626,212.42544226188662L480.40405966224665,200.1065729472569L482.4658796607971,151.88372092391145L484.5276996593475,159.22629028641197L486.5895196578979,150.59071391067505L488.6513396564484,164.10391023316387L490.7131596549988,159.60135518025854L492.77497965354917,137.01255890763787L494.8367996520996,151.06562858604926L496.89861965065,170.3367375126545L498.9604396492004,175.643506448107L501.02225964775084,170.1563609186018L503.08407964630123,167.22276451697604L505.1458996448516,180.23477674659006L507.207719643402,124.49874134295871L509.2695396419525,154.3441500935481L511.3313596405029,183.42201238931654L513.3931796390533,149.06587459445L515.4549996376038,133.74521526113153L517.5168196361542,168.00641344596588L519.5786396347046,171.62292805252073L521.640459633255,143.30365836943457L523.7022796318054,180.32500836865904L525.7640996303558,152.18916247428896L527.8259196289063,145.93236200455587L529.8877396274567,179.06307985265255L531.949559626007,132.24488347734103L534.0113796245574,163.27541988507602L536.0731996231079,178.6858920317183L538.1350196216583,198.3488759687015L540.1968396202087,181.46601669075008L542.2586596187591,201.7146685536912L544.3204796173095,164.96368126201372L546.3822996158599,139.97994884249687L548.4441196144104,195.52272567274045L550.5059396129608,152.49675583511592L552.5677596115112,185.6225057449937L554.6295796100616,199.49319143571157L556.6913996086121,189.65806016364098L558.7532196071625,204.43319944381713L560.8150396057129,168.1768830469425L562.8768596042632,115.8585291876629L564.9386796028136,176.4932116253912L567.000499601364,147.51099658201764L569.0623195999145,138.59925194302446L571.1241395984649,150.72216208994388L573.1859595970153,127.20287387725833L575.2477795955658,151.65616335845996L577.3095995941162,135.0361426723228L579.3714195926666,165.0404099124702L581.433239591217,116.59535818727568L583.4950595897675,150.7669313006375L585.5568795883179,150.95877458930016L587.6186995868683,108.66966263465014L589.6805195854187,151.84212888300894L591.742339583969,146.588404241388L593.8041595825194,84.77489071937288L595.86597958107,124.80928080668292L597.9277995796203,135.82909204379217L599.9896195781707,153.38405270770193L602.0514395767212,114.49176851022895L604.1132595752716,176.64437269904616L606.175079573822,136.5254121285677L608.2368995723724,123.84576074247082L610.2987195709228,132.2325791652407L612.3605395694732,137.4718621259928L614.4223595680236,103.07146057926303L616.4841795665741,79.61100777443738L618.5459995651245,87.94703480559133L620.607819563675,87.87424873401199L622.6696395622253,127.15833573345861L624.7314595607758,134.91808193121943L626.7932795593262,101.91238571440493L628.8550995578765,102.96228147189402L630.9169195564269,117.26514890429502L632.9787395549774,147.46874022379518L635.0405595535277,154.06671096237545L637.1023795520782,67.67117481589315L639.1641995506287,116.51475916634627L641.226019549179,111.3757881209097L643.2878395477295,176.41433116448522L645.3496595462798,168.6455589161813L647.4114795448303,158.20436806476596L649.4732995433807,147.18576992884968L651.5351195419311,134.0916856268576L653.5969395404815,106.89148735262262L655.658759539032,90.7803337335825L657.7205795375824,116.06181028757368L659.7823995361327,155.0683570640815L661.8442195346832,143.03225586086512L663.9060395332335,115.221521086216L665.967859531784,121.989730358879L668.0296795303345,140.36379427831173L670.0914995288848,164.63249019464692L672.1533195274353,123.39003906097139L674.2151395259857,121.58726959642411L676.2769595245361,120.4653387347609L678.3387795230865,142.19771444849326L680.400599521637,92.53368376619636L682.4624195201873,118.46850196269719L684.5242395187378,154.34809267242534L686.5860595172883,124.58436606883049L688.6478795158386,145.85293275977685L690.7096995143891,119.65832316612517L692.7715195129394,170.66961825668295L694.8333395114898,159.08246558663845L696.8951595100402,123.49820725067954L698.9569795085906,143.17206577335705L701.018799507141,108.42110686521528L703.0806195056915,149.53909959316255L705.1424395042418,129.76072662603673L707.2042595027923,176.96123761899096L709.2660795013428,135.06096792173648L711.3278994998931,123.49738407487001L713.3897194984436,155.31245035412786L715.451539496994,116.60916443418637L717.5133594955444,97.79982825336458L719.5751794940948,98.32939024914674L721.6369994926453,91.99493686138152L723.6988194911955,125.27555935689753L725.760639489746,104.52357159063223L727.8224594882965,137.03599775568813L729.8842794868468,159.41287680323833L731.9460994853973,142.02008177380563L734.0079194839477,151.07708083897828L736.0697394824981,143.39996993914937L738.1315594810486,181.8212675984445L740.193379479599,154.07209770933952L742.2551994781494,182.60312575900656L744.3170194766998,144.7494872496258L746.3788394752503,118.17835415235982L748.4406594738006,137.33316422292773L750.5024794723511,110.32537246290929L752.5642994709013,73.04873687096506L754.6261194694519,124.98120901742737L756.6879394680024,155.98518717404446L758.7497594665526,125.61495329899785L760.8115794651031,160.59761453500045L762.8733994636535,102.27575284674765L764.9352194622039,140.21800550994004L766.9970394607543,139.79066173134805L769.0588594593048,150.65118122847318L771.1206794578551,155.6504578948648L773.1824994564056,160.46834704954284L775.2443194549561,123.76225894368673L777.3061394535064,136.3834504056263L779.3679594520569,154.8442077353151L781.4297794506073,153.91079857571464L783.4915994491577,116.50493882335542L785.553419447708,121.38827767573139L787.6152394462586,154.1826198930293L789.6770594448088,139.02298530139925L791.7388794433593,160.70721245111466L793.8006994419098,141.9674996137619L795.8625194404601,129.23344641583182L797.9243394390106,150.361018976455L799.9861594375609,101.33324542819975L802.0479794361114,140.4426602975369L804.1097994346618,130.16315850512984L806.1716194332122,144.89488609261406L808.2334394317626,154.94737910344264L810.2952594303131,86.46277661260791L812.3570794288635,138.87235856993647L814.4188994274139,99.76887923143653L816.4807194259644,132.64640553053943L818.5425394245146,113.65286571023466L820.6043594230651,133.1339711183548L822.6661794216157,117.8788192494577L824.7279994201659,105.4046440987637L826.7898194187164,121.5119706723736L828.8516394172668,115.04263198529276L830.9134594158172,90.42899652140358L832.9752794143676,163.8512674680431L835.0370994129181,111.28674071667194L837.0989194114684,125.11457794025173L839.1607394100189,139.38394067303688L841.2225594085694,114.01566961702349L843.2843794071197,142.42859360054456L845.3461994056702,117.32926996735296L847.4080194042206,111.37489273669581L849.469839402771,149.38965707953102L851.5316594013213,207.3656405109734L853.5934793998717,176.7889772495866L855.6552993984221,134.42642934771817L857.7171193969726,117.51327142330376L859.7789393955229,128.16765036770605L861.8407593940734,146.04451609818383L863.9025793926239,159.0278615912731L865.9643993911742,108.99439827066857L868.0262193897247,141.71843838549665L870.0880393882751,108.78069027717038L872.1498593868255,110.01665265097455L874.2116793853759,96.3604403628409L876.2734993839264,105.14753885425444L878.3353193824767,122.48895038315555L880.3971393810272,116.44292624570431L882.4589593795777,100.37937240680805L884.5207793781279,95.52384823178562L886.5825993766784,118.63878382182253L888.6444193752288,131.55654964208605L890.7062393737792,93.28842045008656L892.7680593723297,126.05530903205278L894.8298793708801,122.59311822726303L896.8916993694305,104.94460435468449L898.9535193679809,141.2576621156931L901.0153393665314,126.6294380549964L903.0771593650817,131.9402506610922L905.1389793636322,124.9008699467536L907.2007993621825,132.2325791652407L909.262619360733,122.40752818641664L911.3244393592835,144.2952530612559L913.3862593578338,152.4707896929136L915.4480793563843,122.40752818641664L917.5098993549346,141.3286429771638L919.571719353485,116.76038327456473L921.6335393520354,102.43293610132486L923.6953593505859,115.61478249795738L925.7571793491362,109.23865041920448L927.8189993476867,131.68444516786113L929.8808193462372,177.04787326252358L931.9426393447875,128.71719964981077L934.004459343338,137.04596251548767L936.0662793418884,95.90692825851443L938.1280993404388,126.25069053252827L940.1899193389892,134.56291767361023L942.2517393375397,145.63788168995785L944.31355933609,146.7267844274739L946.3753793346405,141.25188544334554L948.437199333191,94.86584192635536L950.4990193317412,83.70167164728042L952.5608393302917,163.86038016867138L954.622659328842,85.44157647500532L956.6844793273925,102.4714087391597L958.7462993259429,97.54350285962227L960.8081193244933,122.42458381152284L962.8699393230437,127.42658995559867L964.9317593215942,125.20537278787464L966.9935793201446,164.29921952523503L969.055399318695,135.36938445837296L971.1172193172455,105.75814756307295L973.1790393157958,133.79814402151607L975.2408593143463,137.49551759925606L977.3026793128968,115.21636540614577L979.364499311447,161.72753164618425L981.4263193099976,133.37058361771105L983.4881393085479,88.85157504513478L985.5499593070983,119.00031686069491L987.6117793056487,131.15502758888766L989.6735993041992,114.99367468714712L991.7354193027495,152.17269895809835L993.7972393013,152.82676268465147L995.8590592998505,114.55002625085416L997.9208792984008,147.97746287408353L999.9826992969513,119.72592467427256L1002.0445192955017,111.4444871968031L1004.1063392940521,88.0198497605324L1006.1681592926025,120.00428807302086L1008.2299792911529,132.73961213886736L1010.2917992897032,131.5080111526856L1012.3536192882538,108.51538215792755L1014.415439286804,110.33774898341397L1016.4772592853545,142.41922094966066L1018.539079283905,117.46796787041802L1020.6008992824553,128.93090764330896L1022.6627192810058,80.85385883001601L1024.7245392795562,136.2632234123926L1026.7863592781066,100.6020631258067L1028.848179276657,133.37270654479877L1030.9099992752076,136.5469157913815L1032.9718192737578,86.99226639998574L1035.0336392723084,126.7021808015331L1037.0954592708588,99.37724972963332L1039.1572792694092,98.46720720967875L1041.2190992679596,136.46313960066095L1043.28091926651,122.73154173839157L1045.3427392650603,112.37516687871931L1047.4045592636107,123.785697791737L1049.4663792621614,139.3024895929362L1051.5281992607115,115.41122700611004L1053.5900192592621,146.0372374910259L1055.6518392578125,120.74869895508982L1057.713659256363,95.75370202449523L1059.7754792549133,131.97062151595952L1061.8372992534637,138.32366134700297L1063.899119252014,78.11366541858678L1065.9609392505645,118.49028001744745L1068.0227592491149,114.42253509214339L1070.0845792476653,85.33314833504159L1072.1463992462159,111.59998077471869L1074.208219244766,119.16665614094302L1076.2700392433167,106.60469001224692L1078.331859241867,106.50717978302004L1080.3936792404174,85.36980132108687L1082.4554992389678,82.16588553695675L1084.5173192375182,149.7930276678806L1086.5791392360686,172.12183035981823L1088.640959234619,93.8247411525154L1090.7027792331696,102.77334096108603L1092.7645992317198,126.19332817611695L1094.8264192302704,121.38897087641311L1096.8882392288208,103.87288721740248L1098.9500592273712,144.60221098812465L1101.0118792259216,140.3415540897736L1103.073699224472,114.72121793587422L1105.1355192230224,139.8443847841804L1107.1973392215727,115.1153602901486L1109.2591592201231,91.8056497502327L1111.3209792186735,129.0721183988452L1113.3827992172241,132.97622463822364L1115.4446192157743,138.08462264526074L1117.506439214325,65.05968566436763L1119.5682592128753,79.99134388180107L1121.6300792114257,120.25323376783916L1123.691899209976,100.53073566399513L1125.7537192085265,149.14939083491493L1127.8155392070769,109.04638832179666L1129.8773592056273,152.46449312005478L1131.939179204178,151.86465790516445L1134.000999202728,91.31890733822684" fill="none"></path></g></g></g></g></g></g><g transform="translate(39, 378)" clip-path="url(#clip_1)"><clipPath id="clip_1"><rect width="1237" height="21"></rect></clipPath><g><g><line x1="0" y1="0" x2="0" y2="5" style="visibility: inherit;" fill="rgb(0, 0, 0)" stroke="rgb(204, 204, 204)" stroke-width="1px"></line><line x1="103.09099992752074" y1="0" x2="103.09099992752074" y2="5" style="visibility: inherit;" fill="rgb(0, 0, 0)" stroke="rgb(204, 204, 204)" stroke-width="1px"></line><line x1="206.18199985504148" y1="0" x2="206.18199985504148" y2="5" style="visibility: inherit;" fill="rgb(0, 0, 0)" stroke="rgb(204, 204, 204)" stroke-width="1px"></line><line x1="309.27299978256224" y1="0" x2="309.27299978256224" y2="5" style="visibility: inherit;" fill="rgb(0, 0, 0)" stroke="rgb(204, 204, 204)" stroke-width="1px"></line><line x1="412.36399971008296" y1="0" x2="412.36399971008296" y2="5" style="visibility: inherit;" fill="rgb(0, 0, 0)" stroke="rgb(204, 204, 204)" stroke-width="1px"></line><line x1="515.4549996376038" y1="0" x2="515.4549996376038" y2="5" style="visibility: inherit;" fill="rgb(0, 0, 0)" stroke="rgb(204, 204, 204)" stroke-width="1px"></line><line x1="618.5459995651245" y1="0" x2="618.5459995651245" y2="5" style="visibility: inherit;" fill="rgb(0, 0, 0)" stroke="rgb(204, 204, 204)" stroke-width="1px"></line><line x1="721.6369994926453" y1="0" x2="721.6369994926453" y2="5" style="visibility: inherit;" fill="rgb(0, 0, 0)" stroke="rgb(204, 204, 204)" stroke-width="1px"></line><line x1="824.7279994201659" y1="0" x2="824.7279994201659" y2="5" style="visibility: inherit;" fill="rgb(0, 0, 0)" stroke="rgb(204, 204, 204)" stroke-width="1px"></line><line x1="927.8189993476867" y1="0" x2="927.8189993476867" y2="5" style="visibility: inherit;" fill="rgb(0, 0, 0)" stroke="rgb(204, 204, 204)" stroke-width="1px"></line><line x1="1030.9099992752076" y1="0" x2="1030.9099992752076" y2="5" style="visibility: inherit;" fill="rgb(0, 0, 0)" stroke="rgb(204, 204, 204)" stroke-width="1px"></line><line x1="1134.000999202728" y1="0" x2="1134.000999202728" y2="5" style="visibility: inherit;" fill="rgb(0, 0, 0)" stroke="rgb(204, 204, 204)" stroke-width="1px"></line><line x1="1237.091999130249" y1="0" x2="1237.091999130249" y2="5" style="visibility: inherit;" fill="rgb(0, 0, 0)" stroke="rgb(204, 204, 204)" stroke-width="1px"></line></g><g transform="translate(0, 8)"><text style="text-anchor: middle; visibility: hidden; font-family: &quot;Helvetica Neue&quot;, sans-serif; font-size: 12px; font-weight: 200;" x="0" y="0" dx="0em" dy="0.95em" fill="rgb(50, 49, 63)" stroke="none" stroke-width="1px">-1M</text><text style="text-anchor: middle; visibility: inherit; font-family: &quot;Helvetica Neue&quot;, sans-serif; font-size: 12px; font-weight: 200;" x="103.09099992752074" y="0" dx="0em" dy="0.95em" fill="rgb(50, 49, 63)" stroke="none" stroke-width="1px">0</text><text style="text-anchor: middle; visibility: inherit; font-family: &quot;Helvetica Neue&quot;, sans-serif; font-size: 12px; font-weight: 200;" x="206.18199985504148" y="0" dx="0em" dy="0.95em" fill="rgb(50, 49, 63)" stroke="none" stroke-width="1px">1M</text><text style="text-anchor: middle; visibility: inherit; font-family: &quot;Helvetica Neue&quot;, sans-serif; font-size: 12px; font-weight: 200;" x="309.27299978256224" y="0" dx="0em" dy="0.95em" fill="rgb(50, 49, 63)" stroke="none" stroke-width="1px">2M</text><text style="text-anchor: middle; visibility: inherit; font-family: &quot;Helvetica Neue&quot;, sans-serif; font-size: 12px; font-weight: 200;" x="412.36399971008296" y="0" dx="0em" dy="0.95em" fill="rgb(50, 49, 63)" stroke="none" stroke-width="1px">3M</text><text style="text-anchor: middle; visibility: inherit; font-family: &quot;Helvetica Neue&quot;, sans-serif; font-size: 12px; font-weight: 200;" x="515.4549996376038" y="0" dx="0em" dy="0.95em" fill="rgb(50, 49, 63)" stroke="none" stroke-width="1px">4M</text><text style="text-anchor: middle; visibility: inherit; font-family: &quot;Helvetica Neue&quot;, sans-serif; font-size: 12px; font-weight: 200;" x="618.5459995651245" y="0" dx="0em" dy="0.95em" fill="rgb(50, 49, 63)" stroke="none" stroke-width="1px">5M</text><text style="text-anchor: middle; visibility: inherit; font-family: &quot;Helvetica Neue&quot;, sans-serif; font-size: 12px; font-weight: 200;" x="721.6369994926453" y="0" dx="0em" dy="0.95em" fill="rgb(50, 49, 63)" stroke="none" stroke-width="1px">6M</text><text style="text-anchor: middle; visibility: inherit; font-family: &quot;Helvetica Neue&quot;, sans-serif; font-size: 12px; font-weight: 200;" x="824.7279994201659" y="0" dx="0em" dy="0.95em" fill="rgb(50, 49, 63)" stroke="none" stroke-width="1px">7M</text><text style="text-anchor: middle; visibility: inherit; font-family: &quot;Helvetica Neue&quot;, sans-serif; font-size: 12px; font-weight: 200;" x="927.8189993476867" y="0" dx="0em" dy="0.95em" fill="rgb(50, 49, 63)" stroke="none" stroke-width="1px">8M</text><text style="text-anchor: middle; visibility: inherit; font-family: &quot;Helvetica Neue&quot;, sans-serif; font-size: 12px; font-weight: 200;" x="1030.9099992752076" y="0" dx="0em" dy="0.95em" fill="rgb(50, 49, 63)" stroke="none" stroke-width="1px">9M</text><text style="text-anchor: middle; visibility: inherit; font-family: &quot;Helvetica Neue&quot;, sans-serif; font-size: 12px; font-weight: 200;" x="1134.000999202728" y="0" dx="0em" dy="0.95em" fill="rgb(50, 49, 63)" stroke="none" stroke-width="1px">10M</text><text style="text-anchor: middle; visibility: hidden; font-family: &quot;Helvetica Neue&quot;, sans-serif; font-size: 12px; font-weight: 200;" x="1237.091999130249" y="0" dx="0em" dy="0.95em" fill="rgb(50, 49, 63)" stroke="none" stroke-width="1px">11M</text></g><line x1="0" y1="0" x2="1237.091999130249" y2="0" fill="rgb(0, 0, 0)" stroke="rgb(204, 204, 204)" stroke-width="1px"></line></g></g></g></g></svg>