<svg viewBox="0 0 1277.0833740234375 400" xmlns="http://www.w3.org/2000/svg"><g><g><g><g><g><line x1="49.98400115966797" y1="378.57999897003174" x2="44.98400115966797" y2="378.57999897003174" style="visibility: inherit;" fill="rgb(0, 0, 0)" stroke="rgb(204, 204, 204)" stroke-width="1px"></line><line x1="49.98400115966797" y1="344.1636354273016" x2="44.98400115966797" y2="344.1636354273016" style="visibility: inherit;" fill="rgb(0, 0, 0)" stroke="rgb(204, 204, 204)" stroke-width="1px"></line><line x1="49.98400115966797" y1="309.74727188457143" x2="44.98400115966797" y2="309.74727188457143" style="visibility: inherit;" fill="rgb(0, 0, 0)" stroke="rgb(204, 204, 204)" stroke-width="1px"></line><line x1="49.98400115966797" y1="275.3309083418413" x2="44.98400115966797" y2="275.3309083418413" style="visibility: inherit;" fill="rgb(0, 0, 0)" stroke="rgb(204, 204, 204)" stroke-width="1px"></line><line x1="49.98400115966797" y1="240.9145447991111" x2="44.98400115966797" y2="240.9145447991111" style="visibility: inherit;" fill="rgb(0, 0, 0)" stroke="rgb(204, 204, 204)" stroke-width="1px"></line><line x1="49.98400115966797" y1="206.49818125638095" x2="44.98400115966797" y2="206.49818125638095" style="visibility: inherit;" fill="rgb(0, 0, 0)" stroke="rgb(204, 204, 204)" stroke-width="1px"></line><line x1="49.98400115966797" y1="172.0818177136508" x2="44.98400115966797" y2="172.0818177136508" style="visibility: inherit;" fill="rgb(0, 0, 0)" stroke="rgb(204, 204, 204)" stroke-width="1px"></line><line x1="49.98400115966797" y1="137.66545417092064" x2="44.98400115966797" y2="137.66545417092064" style="visibility: inherit;" fill="rgb(0, 0, 0)" stroke="rgb(204, 204, 204)" stroke-width="1px"></line><line x1="49.98400115966797" y1="103.24909062819046" x2="44.98400115966797" y2="103.24909062819046" style="visibility: inherit;" fill="rgb(0, 0, 0)" stroke="rgb(204, 204, 204)" stroke-width="1px"></line><line x1="49.98400115966797" y1="68.8327270854603" x2="44.98400115966797" y2="68.8327270854603" style="visibility: inherit;" fill="rgb(0, 0, 0)" stroke="rgb(204, 204, 204)" stroke-width="1px"></line><line x1="49.98400115966797" y1="34.41636354273015" x2="44.98400115966797" y2="34.41636354273015" style="visibility: inherit;" fill="rgb(0, 0, 0)" stroke="rgb(204, 204, 204)" stroke-width="1px"></line><line x1="49.98400115966797" y1="0" x2="44.98400115966797" y2="0" style="visibility: inherit;" fill="rgb(0, 0, 0)" stroke="rgb(204, 204, 204)" stroke-width="1px"></line></g><g transform="translate(39.98400115966797, 0)"><text style="text-anchor: end; visibility: hidden; font-family: &quot;Helvetica Neue&quot;, sans-serif; font-size: 12px; font-weight: 200;" x="0" y="378.57999897003174" dx="0em" dy="0.3em" fill="rgb(50, 49, 63)" stroke="none" stroke-width="1px">-100</text><text style="text-anchor: end; visibility: inherit; font-family: &quot;Helvetica Neue&quot;, sans-serif; font-size: 12px; font-weight: 200;" x="0" y="344.1636354273016" dx="0em" dy="0.3em" fill="rgb(50, 49, 63)" stroke="none" stroke-width="1px">0</text><text style="text-anchor: end; visibility: inherit; font-family: &quot;Helvetica Neue&quot;, sans-serif; font-size: 12px; font-weight: 200;" x="0" y="309.74727188457143" dx="0em" dy="0.3em" fill="rgb(50, 49, 63)" stroke="none" stroke-width="1px">100</text><text style="text-anchor: end; visibility: inherit; font-family: &quot;Helvetica Neue&quot;, sans-serif; font-size: 12px; font-weight: 200;" x="0" y="275.3309083418413" dx="0em" dy="0.3em" fill="rgb(50, 49, 63)" stroke="none" stroke-width="1px">200</text><text style="text-anchor: end; visibility: inherit; font-family: &quot;Helvetica Neue&quot;, sans-serif; font-size: 12px; font-weight: 200;" x="0" y="240.9145447991111" dx="0em" dy="0.3em" fill="rgb(50, 49, 63)" stroke="none" stroke-width="1px">300</text><text style="text-anchor: end; visibility: inherit; font-family: &quot;Helvetica Neue&quot;, sans-serif; font-size: 12px; font-weight: 200;" x="0" y="206.49818125638095" dx="0em" dy="0.3em" fill="rgb(50, 49, 63)" stroke="none" stroke-width="1px">400</text><text style="text-anchor: end; visibility: inherit; font-family: &quot;Helvetica Neue&quot;, sans-serif; font-size: 12px; font-weight: 200;" x="0" y="172.0818177136508" dx="0em" dy="0.3em" fill="rgb(50, 49, 63)" stroke="none" stroke-width="1px">500</text><text style="text-anchor: end; visibility: inherit; font-family: &quot;Helvetica Neue&quot;, sans-serif; font-size: 12px; font-weight: 200;" x="0" y="137.66545417092064" dx="0em" dy="0.3em" fill="rgb(50, 49, 63)" stroke="none" stroke-width="1px">600</text><text style="text-anchor: end; visibility: inherit; font-family: &quot;Helvetica Neue&quot;, sans-serif; font-size: 12px; font-weight: 200;" x="0" y="103.24909062819046" dx="0em" dy="0.3em" fill="rgb(50, 49, 63)" stroke="none" stroke-width="1px">700</text><text style="text-anchor: end; visibility: inherit; font-family: &quot;Helvetica Neue&quot;, sans-serif; font-size: 12px; font-weight: 200;" x="0" y="68.8327270854603" dx="0em" dy="0.3em" fill="rgb(50, 49, 63)" stroke="none" stroke-width="1px">800</text><text style="text-anchor: end; visibility: inherit; font-family: &quot;Helvetica Neue&quot;, sans-serif; font-size: 12px; font-weight: 200;" x="0" y="34.41636354273015" dx="0em" dy="0.3em" fill="rgb(50, 49, 63)" stroke="none" stroke-width="1px">900</text><text style="text-anchor: end; visibility: hidden; font-family: &quot;Helvetica Neue&quot;, sans-serif; font-size: 12px; font-weight: 200;" x="0" y="0" dx="0em" dy="0.3em" fill="rgb(50, 49, 63)" stroke="none" stroke-width="1px">1e+3</text></g><line x1="49.98400115966797" y1="0" x2="49.98400115966797" y2="378.57999897003174" fill="rgb(0, 0, 0)" stroke="rgb(204, 204, 204)" stroke-width="1px"></line></g></g><g transform="translate(49, 0)" clip-path="url(#clip_0)"><clipPath id="clip_0"><rect width="1227" height="378"></rect></clipPath><g><g><g><line x1="0" y1="0" x2="0" y2="378.57999897003174" fill="rgb(0, 0, 0)" stroke="rgb(60, 60, 60)" stroke-width="1px" opacity="0.25"></line><line x1="102.257999903361" y1="0" x2="102.257999903361" y2="378.57999897003174" fill="rgb(0, 0, 0)" stroke="rgb(60, 60, 60)" stroke-width="1px" opacity="0.25"></line><line x1="204.515999806722" y1="0" x2="204.515999806722" y2="378.57999897003174" fill="rgb(0, 0, 0)" stroke="rgb(60, 60, 60)" stroke-width="1px" opacity="0.25"></line><line x1="306.773999710083" y1="0" x2="306.773999710083" y2="378.57999897003174" fill="rgb(0, 0, 0)" stroke="rgb(60, 60, 60)" stroke-width="1px" opacity="0.25"></line><line x1="409.031999613444" y1="0" x2="409.031999613444" y2="378.57999897003174" fill="rgb(0, 0, 0)" stroke="rgb(60, 60, 60)" stroke-width="1px" opacity="0.25"></line><line x1="511.289999516805" y1="0" x2="511.289999516805" y2="378.57999897003174" fill="rgb(0, 0, 0)" stroke="rgb(60, 60, 60)" stroke-width="1px" opacity="0.25"></line><line x1="613.547999420166" y1="0" x2="613.547999420166" y2="378.57999897003174" fill="rgb(0, 0, 0)" stroke="rgb(60, 60, 60)" stroke-width="1px" opacity="0.25"></line><line x1="715.805999323527" y1="0" x2="715.805999323527" y2="378.57999897003174" fill="rgb(0, 0, 0)" stroke="rgb(60, 60, 60)" stroke-width="1px" opacity="0.25"></line><line x1="818.063999226888" y1="0" x2="818.063999226888" y2="378.57999897003174" fill="rgb(0, 0, 0)" stroke="rgb(60, 60, 60)" stroke-width="1px" opacity="0.25"></line><line x1="920.321999130249" y1="0" x2="920.321999130249" y2="378.57999897003174" fill="rgb(0, 0, 0)" stroke="rgb(60, 60, 60)" stroke-width="1px" opacity="0.25"></line><line x1="1022.57999903361" y1="0" x2="1022.57999903361" y2="378.57999897003174" fill="rgb(0, 0, 0)" stroke="rgb(60, 60, 60)" stroke-width="1px" opacity="0.25"></line><line x1="1124.837998936971" y1="0" x2="1124.837998936971" y2="378.57999897003174" fill="rgb(0, 0, 0)" stroke="rgb(60, 60, 60)" stroke-width="1px" opacity="0.25"></line><line x1="1227.095998840332" y1="0" x2="1227.095998840332" y2="378.57999897003174" fill="rgb(0, 0, 0)" stroke="rgb(60, 60, 60)" stroke-width="1px" opacity="0.25"></line></g><g><line x1="0" y1="378.57999897003174" x2="1227.095998840332" y2="378.57999897003174" fill="rgb(0, 0, 0)" stroke="rgb(60, 60, 60)" stroke-width="1px" opacity="0.25"></line><line x1="0" y1="344.1636354273016" x2="1227.095998840332" y2="344.1636354273016" fill="rgb(0, 0, 0)" stroke="rgb(60, 60, 60)" stroke-width="1px" opacity="0.25"></line><line x1="0" y1="309.74727188457143" x2="1227.095998840332" y2="309.74727188457143" fill="rgb(0, 0, 0)" stroke="rgb(60, 60, 60)" stroke-width="1px" opacity="0.25"></line><line x1="0" y1="275.3309083418413" x2="1227.095998840332" y2="275.3309083418413" fill="rgb(0, 0, 0)" stroke="rgb(60, 60, 60)" stroke-width="1px" opacity="0.25"></line><line x1="0" y1="240.9145447991111" x2="1227.095998840332" y2="240.9145447991111" fill="rgb(0, 0, 0)" stroke="rgb(60, 60, 60)" stroke-width="1px" opacity="0.25"></line><line x1="0" y1="206.49818125638095" x2="1227.095998840332" y2="206.49818125638095" fill="rgb(0, 0, 0)" stroke="rgb(60, 60, 60)" stroke-width="1px" opacity="0.25"></line><line x1="0" y1="172.0818177136508" x2="1227.095998840332" y2="172.0818177136508" fill="rgb(0, 0, 0)" stroke="rgb(60, 60, 60)" stroke-width="1px" opacity="0.25"></line><line x1="0" y1="137.66545417092064" x2="1227.095998840332" y2="137.66545417092064" fill="rgb(0, 0, 0)" stroke="rgb(60, 60, 60)" stroke-width="1px" opacity="0.25"></line><line x1="0" y1="103.24909062819046" x2="1227.095998840332" y2="103.24909062819046" fill="rgb(0, 0, 0)" stroke="rgb(60, 60, 60)" stroke-width="1px" opacity="0.25"></line><line x1="0" y1="68.8327270854603" x2="1227.095998840332" y2="68.8327270854603" fill="rgb(0, 0, 0)" stroke="rgb(60, 60, 60)" stroke-width="1px" opacity="0.25"></line><line x1="0" y1="34.41636354273015" x2="1227.095998840332" y2="34.41636354273015" fill="rgb(0, 0, 0)" stroke="rgb(60, 60, 60)" stroke-width="1px" opacity="0.25"></line><line x1="0" y1="0" x2="1227.095998840332" y2="0" fill="rgb(0, 0, 0)" stroke="rgb(60, 60, 60)" stroke-width="1px" opacity="0.25"></line></g></g></g><g><g><line x1="0" y1="344.1636354273016" x2="1227.095998840332" y2="344.1636354273016" fill="rgb(0, 0, 0)" stroke="rgb(153, 153, 153)" stroke-width="1.5px"></line></g></g><g><g><line x1="102.257999903361" y1="0" x2="102.257999903361" y2="378.57999897003174" fill="rgb(0, 0, 0)" stroke="rgb(153, 153, 153)" stroke-width="1.5px"></line></g></g><g><g><g><g><g><path style="fill: none;" stroke="rgb(0, 153, 136)" stroke-width="2px" d="M104.30315990142823,341.5509188970122L106.34831989949544,338.896837782294L108.39347989756266,334.9095638721116L110.43863989562988,329.48794943886924L112.48379989369708,319.1301921164738L114.52895989176432,302.72253372175385L116.57411988983154,294.49296551044523L118.61927988789876,284.9674901338057L120.66443988596598,277.48024532524045L122.7095998840332,287.93217290994187L124.75475988210042,292.2599665568923L126.79991988016764,266.60307063143324L128.84507987823486,285.7724326647967L130.89023987630208,287.1728923480982L132.9353998743693,286.1809641847368L134.98055987243652,272.49061307590915L137.02571987050374,265.61258663615877L139.07087986857096,258.39568484193927L141.11603986663818,250.43819789820097L143.1611998647054,251.62093480072272L145.20635986277262,271.06547649864297L147.25151986083984,275.89204379064313L149.29667985890705,250.88222444395672L151.34183985697427,249.73722496642552L153.3869998550415,267.0250933070651L155.43215985310871,267.81817790518267L157.47731985117593,237.60450104091564L159.52247984924315,275.0571413362495L161.56763984731035,258.9684891688832L163.6127998453776,271.4046354352091L165.65795984344481,264.6576869425453L167.70311984151203,281.2138557060407L169.74827983957925,257.84826636420274L171.7934398376465,271.83253981359485L173.8385998357137,261.5850959269567L175.8837598337809,204.39945317426674L177.92891983184813,248.1317091693464L179.97407982991535,255.34260322432442L182.01923982798257,245.2437616080672L184.0643998260498,258.0638570277342L186.109559824117,262.25673911776744L188.1547198221842,243.5666255769189L190.19987982025145,241.9919257010539L192.24503981831867,243.9867156930745L194.2901998163859,256.54460795488546L196.3353598144531,240.74246298139747L198.3805198125203,229.4499507973206L200.42567981058755,225.66299547315077L202.47083980865477,192.900052095822L204.515999806722,214.9452831937379L206.5611598047892,212.11718195797948L208.60631980285646,245.07628012215034L210.65147980092365,227.85718569156867L212.69663979899087,200.43930271007625L214.7417997970581,213.2794799434315L216.7869597951253,225.6686986242139L218.83211979319253,202.26988816485712L220.87727979125975,189.01623773094445L222.92243978932697,205.770141988897L224.96759978739416,176.84576587740338L227.0127597854614,220.74081900227807L229.05791978352863,250.41257047905904L231.10307978159585,226.47290594236068L233.14823977966307,212.05396415641587L235.19339977773032,210.97962913625634L237.2385597757975,206.21475670492813L239.28371977386473,234.89987355082624L241.32887977193195,227.43965831732731L243.37403976999917,257.62006680039264L245.4191997680664,229.08061137349856L247.4643597661336,230.23898122175422L249.50951976420083,200.76679802002067L251.55467976226802,177.18550773272463L253.59983976033527,192.3949503687915L255.6449997584025,266.4938967755846L257.6901597564697,229.5759137636194L259.73531975453693,227.28677605788883L261.78047975260415,233.970207412331L263.82563975067137,208.9354223380625L265.8707997487386,224.8898036339901L267.9159597468058,214.9673080699431L269.96111974487303,191.21584751832842L272.00627974294025,216.2208039572022L274.05143974100747,172.33541362970888L276.0965997390747,208.5433123221504L278.1417597371419,206.6253730784337L280.18691973520913,228.0761950948258L282.23207973327635,201.37484004828477L284.27723973134357,234.0934080789436L286.3223997294108,259.68752207902526L288.367559727478,188.0308634649374L290.41271972554523,179.867564188496L292.45787972361245,180.00663494950342L294.50303972167967,211.52064075920737L296.5481997197469,218.14355359352834L298.5933597178141,215.8406569045699L300.63851971588133,225.05967981317107L302.68367971394855,202.83686330425036L304.72883971201577,213.73790615789363L306.773999710083,230.1164107375795L308.8191597081502,198.59805666905396L310.86431970621743,196.9826890198621L312.90947970428465,198.01415062816207L314.95463970235187,176.54794165724417L316.99979970041915,185.82377551262348L319.0449596984863,194.3787016651079L321.09011969655353,183.01502087770908L323.1352796946207,172.16124170690946L325.18043969268797,181.74899486297605L327.2255996907552,158.39469628981746L329.2707596888224,222.35519936565052L331.31591968688963,205.71152451913014L333.36107968495685,156.6231274203474L335.40623968302407,195.89232635969825L337.4513996810913,206.48518899511924L339.4965596791585,248.00118788341334L341.54171967722573,205.19433379233234L343.586879675293,188.27515368699562L345.63203967336017,153.55434900850815L347.6771996714274,178.34879300399604L349.72235966949455,180.6170716710316L351.7675196675618,192.19975135864698L353.81267966562905,107.7600835613635L355.85783966369627,137.86360453548275L357.9029996617635,160.06476377462045L359.9481596598307,178.10888254988134L361.9933196578979,176.47652098094702L364.03847965596515,200.01144034385305L366.08363965403237,144.27701321831847L368.1287996520996,125.95242124602228L370.17395965016686,127.17367279854139L372.219119648234,166.8356539484047L374.26427964630125,178.5826852158286L376.3094396443684,120.55560186595176L378.3545996424357,102.9508252803247L380.3997596405029,167.74007077722078L382.4449196385701,122.21249853780228L384.49007963663735,142.27116352451247L386.53523963470457,152.10221961681785L388.5803996327718,137.01273220780828L390.62555963083906,154.6255121103968L392.6707196289062,192.23637546133054L394.71587962697345,223.69526131379806L396.7610396250406,215.32942140181038L398.8061996231079,184.7235399942656L400.8513596211751,170.32569881695034L402.8965196192423,122.27194574777906L404.94167961730955,224.8854448721279L406.98683961537677,205.64114364385554L409.031999613444,142.55258199520458L411.0771596115112,170.78164631382333L413.1223196095784,169.00112885373488L415.16747960764565,144.62172301185862L417.2126396057129,141.7224216636563L419.2577996037801,164.33032165430632L421.3029596018473,228.2542426396184L423.34811959991447,201.5302535405155L425.39327959798175,156.88824517197875L427.43843959604897,153.96896704049448L429.4835995941162,202.7197018860011L431.5287595921834,190.68385800728018L433.5739195902506,143.18190318378896L435.61907958831785,150.75297801115798L437.66423958638507,123.35228850718005L439.7093995844523,172.55189180017373L441.7545595825195,200.19848899446723L443.7997195805868,182.16329780374343L445.84487957865394,253.11274467992047L447.89003957672116,175.81599525864516L449.9351995747883,198.42672056722517L451.9803595728556,195.17387636831123L454.0255195709228,207.1630447344638L456.07067956899004,182.47875662912367L458.11583956705726,167.6851188686345L460.1609995651245,149.31120461753076L462.2061595631917,156.51347567614997L464.2513195612589,203.87129727304915L466.29647955932614,158.11993674688597L468.34163955739336,159.1394458949468L470.38679955546064,156.61306550742202L472.4319595535278,178.66004011008286L474.477119551595,215.73865137395254L476.5222795496622,207.48150742946476L478.56743954772946,153.96629926817394L480.6125995457967,158.90237126180276L482.6577595438639,150.41862421568092L484.7029195419311,166.25015144533677L486.74807953999834,156.7484286950864L488.79323953806556,129.79019028076942L490.8383995361328,138.60913136561888L492.8835595342,166.83332227338443L494.9287195322672,173.2126380863289L496.9738795303345,162.25504686192323L499.01903952840166,172.42598134907809L501.0641995264689,181.18403630738422L503.10935952453605,133.24193056013038L505.1545195226033,160.15080468347728L507.19967952067054,188.48981483143115L509.24483951873776,145.41869373500998L511.289999516805,123.16756102854555L513.3351595148722,169.92450367089162L515.3803195129394,170.14038316804047L517.4254795110066,138.8194232451515L519.4706395090739,178.47091185742354L521.5157995071411,148.83682428434872L523.5609595052083,144.9859054427304L525.6061195032755,178.46796050300603L527.6512795013427,127.74728585961395L529.69643949941,166.97517634015938L531.7415994974772,185.45503476211744L533.7867594955444,205.2128401499258L535.8319194936116,187.3550348124348L537.8770794916788,207.57460638162624L539.9222394897461,167.44025097934153L541.9673994878133,149.40058549330857L544.0125594858805,202.6091363772687L546.0577194839477,161.18611040464853L548.1028794820149,184.1348655729268L550.1480394800822,208.7814162532764L552.1931994781494,199.56391628556685L554.2383594762166,214.74314167373566L556.2835194742838,174.0144297051303L558.328679472351,113.89522468569669L560.3738394704183,180.03419492812165L562.4189994684855,150.7338414711266L564.4641594665527,140.68194844649412L566.5093194646199,152.06295925093568L568.5544794626871,135.17600247425776L570.5996394607544,149.83797411738493L572.6447994588216,131.05549158569886L574.6899594568888,168.6773831292961L576.735119454956,110.75450044552866L578.7802794530232,151.95288738511294L580.8254394510905,151.15476132749208L582.8705994491577,105.69873580085834L584.9157594472249,160.2140960063253L586.9609194452921,144.01223156398734L589.0060794433593,84.39384303100638L591.0512394414266,123.55474511840129L593.0963994394938,132.8569941209699L595.141559437561,154.57249276128684L597.1867194356282,119.22663112871152L599.2318794336954,180.38954430182199L601.2770394317627,127.56999453374686L603.3221994298299,123.50260802470433L605.3673594278971,134.57781229810644L607.4125194259643,134.43276530697938L609.4576794240315,107.07929747368263L611.5028394220988,78.95368810528839L613.547999420166,95.19565315675914L615.5931594182332,88.10589066938923L617.6383194163004,123.49401653746739L619.6834794143676,125.2640939751677L621.7286394124349,104.26883084314522L623.7737994105021,100.83994518019938L625.8189594085693,112.38089628738402L627.8641194066366,149.48532402512703L629.9092794047037,155.52476144322196L631.954439402771,69.70637000522481L633.9995994008383,118.04812695156443L636.0447593989054,114.96176644970728L638.0899193969726,187.20350744523785L640.1350793950397,174.72410965758965L642.1802393931071,167.1411663943065L644.2253993911743,150.9018060969125L646.2705593892414,137.92357689749107L648.3157193873087,113.34455026536426L650.3608793853759,90.75881169044754L652.4060393834432,118.1759489560551L654.4511993815104,159.35658575697147L656.4963593795776,148.27900779638657L658.5415193776448,120.39353994900097L660.586679375712,130.19617481335635L662.6318393737793,148.63088066363773L664.6769993718465,174.5634236389616L666.7221593699137,134.5089753698047L668.7673193679809,129.68085362779098L670.8124793660481,134.1195226231725L672.8576393641154,154.12794106349946L674.9027993621826,95.12154370206014L676.9479593602498,128.12720184535237L678.993119358317,164.56603089216827L681.0382793563844,134.16645020871596L683.0834393544515,161.21350233461658L685.1285993525187,130.93951701104103L687.173759350586,189.97084859094053L689.2189193486531,171.94797746687803L691.2640793467203,135.48248119989765L693.3092393447874,156.28156853899682L695.3543993428548,120.52419777446227L697.399559340922,163.29488989664748L699.4447193389891,139.34213857132173L701.4898793370564,191.49989174917852L703.5350393351237,148.16244505145332L705.5801993331909,136.85882065038788L707.6253593312581,169.03596743951107L709.6705193293253,128.9664157979254L711.7156793273925,111.79581390594137L713.7608393254598,106.9611382665733L715.805999323527,99.65203027864607L717.8511593215942,142.11807120426133L719.8963193196614,117.20922809021039L721.9414793177286,147.05750417089234L723.9866393157959,177.43030210073317L726.0317993138631,154.12794106349946L728.0769593119303,163.46911433465007L730.1221193099975,155.1899035017946L732.1672793080647,193.85390673689258L734.2124393061321,170.66986245237766L736.2575993041992,194.44480780284533L738.3027593022664,155.35337282619003L740.3479193003337,127.70332013152867L742.3930792984008,150.22150314910073L744.438239296468,117.88509875487551L746.4833992945352,90.26472765304004L748.5285592926025,132.83785758093853L750.5737192906697,171.74647663235433L752.6188792887368,145.39901103686574L754.6640392868042,175.2698581518657L756.7091992848714,124.9529098873247L758.7543592829386,154.60246843925034L760.7995192810058,158.28945582268543L762.844679279073,168.71572973064332L764.8898392771403,164.25455271918753L766.9349992752075,180.47605784750726L768.9801592732747,146.87689388418556L771.0253192713419,156.73212797602565L773.0704792694091,174.09245679398495L775.1156392674764,173.54860935006326L777.1607992655436,136.38872555778366L779.2059592636108,138.39791521851063L781.2511192616781,165.05872852821244L783.2962792597452,149.9597463704716L785.3414392578125,175.81408370525014L787.3865992558798,156.6239466575167L789.4317592539469,144.71068376601113L791.4769192520141,157.26467414822736L793.5220792500812,127.4236241595002L795.5672392481486,156.22161718306972L797.6123992462158,147.65550529231228L799.6575592442829,171.57376463220274L801.7027192423502,171.68848934502537L803.7478792404174,102.38868153962221L805.7930392384847,158.17186377977026L807.8381992365519,119.10435472967453L809.8833592346191,147.2919110317159L811.9285192326863,126.04255834072558L813.9736792307535,147.45117913985857L816.0188392288208,129.97554794184188L818.063999226888,128.34513993846505L820.1091592249552,138.53140886494256L822.1543192230224,132.91837389042294L824.1994792210896,110.75811349150604L826.2446392191569,182.25923257687552L828.2897992172241,132.44399355724087L830.3349592152913,143.5828462568725L832.3801192133585,159.3198671269222L834.4252792114258,135.29071668403972L836.470439209493,158.12995664764884L838.5155992075602,130.58235061131137L840.5607592056275,126.51051081304087L842.6059192036946,169.18359817863353L844.6510792017618,225.47231277047797L846.6962391998289,196.21629264799031L848.7413991978963,152.67543356234643L850.7865591959635,133.68431863154757L852.8317191940306,143.88260303650796L854.8768791920979,158.23584830330003L856.9220391901652,175.31695378605932L858.9671991882324,129.4169962410355L861.0123591862996,159.79155868170247L863.0575191843668,121.34543052147336L865.102679182434,126.74716532455972L867.1478391805013,109.1321377712759L869.1929991785685,116.39391905811567L871.2381591766357,133.92406103701214L873.2833191747029,131.52428430126471L875.3284791727701,118.86803631545592L877.3736391708374,117.44584058956667L879.4187991689046,139.2560556503024L881.4639591669718,148.24067169807998L883.509119165039,115.89136956995878L885.5542791631062,140.2789467774467L887.5994391611736,139.50775051600613L889.6445991592407,123.90903368499772L891.6897591573079,160.8678262613383L893.7349191553752,143.86039960861206L895.7800791534423,147.67409567423078L897.8252391515095,148.88303766312924L899.8703991495767,146.81036762482285L901.915559147644,139.11739450787954L903.9607191457112,161.25877043974023L906.0058791437783,172.17646061278518L908.0510391418456,140.92979919932657L910.0961991399129,160.2511927458373L912.1413591379801,125.53629077618498L914.1865191360473,130.01856839627027L916.2316791341145,143.69352729905182L918.2768391321817,120.36549683051368L920.321999130249,147.95412774355947L922.3671591283162,201.3357267249714L924.4123191263834,143.38717460989955L926.4574791244506,157.4696094770377L928.5026391225178,120.54070855433565L930.5477991205851,143.00520002819724L932.5929591186523,151.8571416667122L934.6381191167196,163.27625750256647L936.6832791147867,167.2438651256056L938.728439112854,163.5616671286987L940.7735991109213,116.224063885016L942.8187591089884,104.19554062561559L944.8639191070556,178.7709417161155L946.9090791051227,103.58138582770368L948.95423910319,121.25573455447665L950.9993991012573,120.04011263173629L953.0445590993244,146.71886513483744L955.0897190973917,149.63818527848423L957.1348790954589,147.0756114129418L959.1800390935261,185.41406240061227L961.2251990915934,150.1127126542351L963.2703590896606,130.5183240756191L965.3155190877278,155.40798863747614L967.360679085795,161.3180916132294L969.4058390838622,143.06071910097768L971.4509990819295,181.74358579705063L973.4961590799967,154.56770337475865L975.5413190780639,116.43866201120773L977.5864790761311,140.32381576702633L979.6316390741983,154.17488965512422L981.6767990722656,139.40538788200726L983.7219590703328,173.92982771284005L985.7671190684,173.30450818273644L987.8122790664673,132.1588360040838L989.8574390645344,174.2262235194733L991.9025990626017,141.05791528895492L993.947759060669,129.3869155326656L995.9929190587361,111.63957067350066L998.0380790568033,145.93580043748275L1000.0832390548704,153.71208367271856L1002.1283990529378,157.6181224715733L1004.173559051005,134.9240135234163L1006.2187190490721,134.84553480381447L1008.2638790471394,164.28337306268162L1010.3090390452066,139.6911125993585L1012.3541990432739,155.25111522259752L1014.3993590413411,106.8628088001771L1016.4445190394083,159.53379305851348L1018.4896790374755,133.0574761605523L1020.5348390355427,149.53418417014677L1022.57999903361,160.80785389932993L1024.6251590316772,113.43632583440609L1026.6703190297444,147.7017186710928L1028.7154790278116,124.88222442387175L1030.7606390258788,119.49097165533612L1032.805799023946,155.579608321402L1034.8509590220133,149.6442560359695L1036.8961190200805,138.27347519310345L1038.9412790181477,151.60408140572636L1040.986439016215,160.14198212934642L1043.0315990142822,145.93580043748275L1045.0767590123494,166.18801545695825L1047.1219190104166,144.1379529603516L1049.1670790084838,120.02461014376354L1051.212239006551,151.26512727845247L1053.2573990046183,169.37263190392716L1055.3025590026855,100.58459525635573L1057.3477190007527,148.61968442232404L1059.39287899882,141.90223371927505L1061.4380389968871,112.45269507314396L1063.4831989949544,139.55343874275508L1065.5283589930216,144.4861497633816L1067.5735189910888,129.8711687240417L1069.618678989156,137.68919104274883L1071.6638389872232,113.5149936087393L1073.7089989852905,112.35031143306384L1075.7541589833577,171.08290502826918L1077.799318981425,193.86580668192858L1079.8444789794921,128.88335775260805L1081.8896389775593,132.78643469400453L1083.9347989756266,155.72081119965773L1085.9799589736938,147.21353734252037L1088.025118971761,125.90131345030727L1090.0702789698282,173.63055407307365L1092.1154389678954,166.78698285811632L1094.1605989659627,133.930257830985L1096.2057589640299,169.25202548835063L1098.250918962097,142.13958143147556L1100.2960789601643,119.12363831227475L1102.3412389582315,159.9242330909651L1104.3863989562988,154.86380509625423L1106.431558954366,163.83094408442025L1108.4767189524332,93.20461275024417L1110.5218789505004,113.21796761966812L1112.5670389485676,144.54872687946667L1114.6121989466349,131.1586104386232L1116.657358944702,172.79039484684375L1118.7025189427693,136.06556800362023L1120.7476789408365,174.4909631616419L1122.7928389389037,178.0309289823111L1124.837998936971,119.8771054411286" fill="none"></path></g></g></g></g></g></g><g transform="translate(49, 378)" clip-path="url(#clip_1)"><clipPath id="clip_1"><rect width="1227" height="21"></rect></clipPath><g><g><line x1="0" y1="0" x2="0" y2="5" style="visibility: inherit;" fill="rgb(0, 0, 0)" stroke="rgb(204, 204, 204)" stroke-width="1px"></line><line x1="102.257999903361" y1="0" x2="102.257999903361" y2="5" style="visibility: inherit;" fill="rgb(0, 0, 0)" stroke="rgb(204, 204, 204)" stroke-width="1px"></line><line x1="204.515999806722" y1="0" x2="204.515999806722" y2="5" style="visibility: inherit;" fill="rgb(0, 0, 0)" stroke="rgb(204, 204, 204)" stroke-width="1px"></line><line x1="306.773999710083" y1="0" x2="306.773999710083" y2="5" style="visibility: inherit;" fill="rgb(0, 0, 0)" stroke="rgb(204, 204, 204)" stroke-width="1px"></line><line x1="409.031999613444" y1="0" x2="409.031999613444" y2="5" style="visibility: inherit;" fill="rgb(0, 0, 0)" stroke="rgb(204, 204, 204)" stroke-width="1px"></line><line x1="511.289999516805" y1="0" x2="511.289999516805" y2="5" style="visibility: inherit;" fill="rgb(0, 0, 0)" stroke="rgb(204, 204, 204)" stroke-width="1px"></line><line x1="613.547999420166" y1="0" x2="613.547999420166" y2="5" style="visibility: inherit;" fill="rgb(0, 0, 0)" stroke="rgb(204, 204, 204)" stroke-width="1px"></line><line x1="715.805999323527" y1="0" x2="715.805999323527" y2="5" style="visibility: inherit;" fill="rgb(0, 0, 0)" stroke="rgb(204, 204, 204)" stroke-width="1px"></line><line x1="818.063999226888" y1="0" x2="818.063999226888" y2="5" style="visibility: inherit;" fill="rgb(0, 0, 0)" stroke="rgb(204, 204, 204)" stroke-width="1px"></line><line x1="920.321999130249" y1="0" x2="920.321999130249" y2="5" style="visibility: inherit;" fill="rgb(0, 0, 0)" stroke="rgb(204, 204, 204)" stroke-width="1px"></line><line x1="1022.57999903361" y1="0" x2="1022.57999903361" y2="5" style="visibility: inherit;" fill="rgb(0, 0, 0)" stroke="rgb(204, 204, 204)" stroke-width="1px"></line><line x1="1124.837998936971" y1="0" x2="1124.837998936971" y2="5" style="visibility: inherit;" fill="rgb(0, 0, 0)" stroke="rgb(204, 204, 204)" stroke-width="1px"></line><line x1="1227.095998840332" y1="0" x2="1227.095998840332" y2="5" style="visibility: inherit;" fill="rgb(0, 0, 0)" stroke="rgb(204, 204, 204)" stroke-width="1px"></line></g><g transform="translate(0, 8)"><text style="text-anchor: middle; visibility: hidden; font-family: &quot;Helvetica Neue&quot;, sans-serif; font-size: 12px; font-weight: 200;" x="0" y="0" dx="0em" dy="0.95em" fill="rgb(50, 49, 63)" stroke="none" stroke-width="1px">-1M</text><text style="text-anchor: middle; visibility: hidden; font-family: &quot;Helvetica Neue&quot;, sans-serif; font-size: 12px; font-weight: 200;" x="102.257999903361" y="0" dx="0em" dy="0.95em" fill="rgb(50, 49, 63)" stroke="none" stroke-width="1px">0</text><text style="text-anchor: middle; visibility: hidden; font-family: &quot;Helvetica Neue&quot;, sans-serif; font-size: 12px; font-weight: 200;" x="204.515999806722" y="0" dx="0em" dy="0.95em" fill="rgb(50, 49, 63)" stroke="none" stroke-width="1px">1M</text><text style="text-anchor: middle; visibility: hidden; font-family: &quot;Helvetica Neue&quot;, sans-serif; font-size: 12px; font-weight: 200;" x="306.773999710083" y="0" dx="0em" dy="0.95em" fill="rgb(50, 49, 63)" stroke="none" stroke-width="1px">2M</text><text style="text-anchor: middle; visibility: hidden; font-family: &quot;Helvetica Neue&quot;, sans-serif; font-size: 12px; font-weight: 200;" x="409.031999613444" y="0" dx="0em" dy="0.95em" fill="rgb(50, 49, 63)" stroke="none" stroke-width="1px">3M</text><text style="text-anchor: middle; visibility: hidden; font-family: &quot;Helvetica Neue&quot;, sans-serif; font-size: 12px; font-weight: 200;" x="511.289999516805" y="0" dx="0em" dy="0.95em" fill="rgb(50, 49, 63)" stroke="none" stroke-width="1px">4M</text><text style="text-anchor: middle; visibility: hidden; font-family: &quot;Helvetica Neue&quot;, sans-serif; font-size: 12px; font-weight: 200;" x="613.547999420166" y="0" dx="0em" dy="0.95em" fill="rgb(50, 49, 63)" stroke="none" stroke-width="1px">5M</text><text style="text-anchor: middle; visibility: hidden; font-family: &quot;Helvetica Neue&quot;, sans-serif; font-size: 12px; font-weight: 200;" x="715.805999323527" y="0" dx="0em" dy="0.95em" fill="rgb(50, 49, 63)" stroke="none" stroke-width="1px">6M</text><text style="text-anchor: middle; visibility: hidden; font-family: &quot;Helvetica Neue&quot;, sans-serif; font-size: 12px; font-weight: 200;" x="818.063999226888" y="0" dx="0em" dy="0.95em" fill="rgb(50, 49, 63)" stroke="none" stroke-width="1px">7M</text><text style="text-anchor: middle; visibility: hidden; font-family: &quot;Helvetica Neue&quot;, sans-serif; font-size: 12px; font-weight: 200;" x="920.321999130249" y="0" dx="0em" dy="0.95em" fill="rgb(50, 49, 63)" stroke="none" stroke-width="1px">8M</text><text style="text-anchor: middle; visibility: hidden; font-family: &quot;Helvetica Neue&quot;, sans-serif; font-size: 12px; font-weight: 200;" x="1022.57999903361" y="0" dx="0em" dy="0.95em" fill="rgb(50, 49, 63)" stroke="none" stroke-width="1px">9M</text><text style="text-anchor: middle; visibility: hidden; font-family: &quot;Helvetica Neue&quot;, sans-serif; font-size: 12px; font-weight: 200;" x="1124.837998936971" y="0" dx="0em" dy="0.95em" fill="rgb(50, 49, 63)" stroke="none" stroke-width="1px">10M</text><text style="text-anchor: middle; visibility: hidden; font-family: &quot;Helvetica Neue&quot;, sans-serif; font-size: 12px; font-weight: 200;" x="1227.095998840332" y="0" dx="0em" dy="0.95em" fill="rgb(50, 49, 63)" stroke="none" stroke-width="1px">11M</text></g><line x1="0" y1="0" x2="1227.095998840332" y2="0" fill="rgb(0, 0, 0)" stroke="rgb(204, 204, 204)" stroke-width="1px"></line></g></g></g></g></svg>