<svg viewBox="0 0 1277.0833740234375 400" xmlns="http://www.w3.org/2000/svg"><g><g><g><g><g><line x1="39.98800086975098" y1="378.57999897003174" x2="34.98800086975098" y2="378.57999897003174" style="visibility: inherit;" fill="rgb(0, 0, 0)" stroke="rgb(204, 204, 204)" stroke-width="1px"></line><line x1="39.98800086975098" y1="336.5155546400282" x2="34.98800086975098" y2="336.5155546400282" style="visibility: inherit;" fill="rgb(0, 0, 0)" stroke="rgb(204, 204, 204)" stroke-width="1px"></line><line x1="39.98800086975098" y1="294.45111031002466" x2="34.98800086975098" y2="294.45111031002466" style="visibility: inherit;" fill="rgb(0, 0, 0)" stroke="rgb(204, 204, 204)" stroke-width="1px"></line><line x1="39.98800086975098" y1="252.38666598002118" x2="34.98800086975098" y2="252.38666598002118" style="visibility: inherit;" fill="rgb(0, 0, 0)" stroke="rgb(204, 204, 204)" stroke-width="1px"></line><line x1="39.98800086975098" y1="210.32222165001764" x2="34.98800086975098" y2="210.32222165001764" style="visibility: inherit;" fill="rgb(0, 0, 0)" stroke="rgb(204, 204, 204)" stroke-width="1px"></line><line x1="39.98800086975098" y1="168.2577773200141" x2="34.98800086975098" y2="168.2577773200141" style="visibility: inherit;" fill="rgb(0, 0, 0)" stroke="rgb(204, 204, 204)" stroke-width="1px"></line><line x1="39.98800086975098" y1="126.19333299001059" x2="34.98800086975098" y2="126.19333299001059" style="visibility: inherit;" fill="rgb(0, 0, 0)" stroke="rgb(204, 204, 204)" stroke-width="1px"></line><line x1="39.98800086975098" y1="84.12888866000702" x2="34.98800086975098" y2="84.12888866000702" style="visibility: inherit;" fill="rgb(0, 0, 0)" stroke="rgb(204, 204, 204)" stroke-width="1px"></line><line x1="39.98800086975098" y1="42.06444433000354" x2="34.98800086975098" y2="42.06444433000354" style="visibility: inherit;" fill="rgb(0, 0, 0)" stroke="rgb(204, 204, 204)" stroke-width="1px"></line><line x1="39.98800086975098" y1="0" x2="34.98800086975098" y2="0" style="visibility: inherit;" fill="rgb(0, 0, 0)" stroke="rgb(204, 204, 204)" stroke-width="1px"></line></g><g transform="translate(29.988000869750977, 0)"><text style="text-anchor: end; visibility: hidden; font-family: &quot;Helvetica Neue&quot;, sans-serif; font-size: 12px; font-weight: 200;" x="0" y="378.57999897003174" dx="0em" dy="0.3em" fill="rgb(50, 49, 63)" stroke="none" stroke-width="1px">-10</text><text style="text-anchor: end; visibility: inherit; font-family: &quot;Helvetica Neue&quot;, sans-serif; font-size: 12px; font-weight: 200;" x="0" y="336.5155546400282" dx="0em" dy="0.3em" fill="rgb(50, 49, 63)" stroke="none" stroke-width="1px">0</text><text style="text-anchor: end; visibility: inherit; font-family: &quot;Helvetica Neue&quot;, sans-serif; font-size: 12px; font-weight: 200;" x="0" y="294.45111031002466" dx="0em" dy="0.3em" fill="rgb(50, 49, 63)" stroke="none" stroke-width="1px">10</text><text style="text-anchor: end; visibility: inherit; font-family: &quot;Helvetica Neue&quot;, sans-serif; font-size: 12px; font-weight: 200;" x="0" y="252.38666598002118" dx="0em" dy="0.3em" fill="rgb(50, 49, 63)" stroke="none" stroke-width="1px">20</text><text style="text-anchor: end; visibility: inherit; font-family: &quot;Helvetica Neue&quot;, sans-serif; font-size: 12px; font-weight: 200;" x="0" y="210.32222165001764" dx="0em" dy="0.3em" fill="rgb(50, 49, 63)" stroke="none" stroke-width="1px">30</text><text style="text-anchor: end; visibility: inherit; font-family: &quot;Helvetica Neue&quot;, sans-serif; font-size: 12px; font-weight: 200;" x="0" y="168.2577773200141" dx="0em" dy="0.3em" fill="rgb(50, 49, 63)" stroke="none" stroke-width="1px">40</text><text style="text-anchor: end; visibility: inherit; font-family: &quot;Helvetica Neue&quot;, sans-serif; font-size: 12px; font-weight: 200;" x="0" y="126.19333299001059" dx="0em" dy="0.3em" fill="rgb(50, 49, 63)" stroke="none" stroke-width="1px">50</text><text style="text-anchor: end; visibility: inherit; font-family: &quot;Helvetica Neue&quot;, sans-serif; font-size: 12px; font-weight: 200;" x="0" y="84.12888866000702" dx="0em" dy="0.3em" fill="rgb(50, 49, 63)" stroke="none" stroke-width="1px">60</text><text style="text-anchor: end; visibility: inherit; font-family: &quot;Helvetica Neue&quot;, sans-serif; font-size: 12px; font-weight: 200;" x="0" y="42.06444433000354" dx="0em" dy="0.3em" fill="rgb(50, 49, 63)" stroke="none" stroke-width="1px">70</text><text style="text-anchor: end; visibility: hidden; font-family: &quot;Helvetica Neue&quot;, sans-serif; font-size: 12px; font-weight: 200;" x="0" y="0" dx="0em" dy="0.3em" fill="rgb(50, 49, 63)" stroke="none" stroke-width="1px">80</text></g><line x1="39.98800086975098" y1="0" x2="39.98800086975098" y2="378.57999897003174" fill="rgb(0, 0, 0)" stroke="rgb(204, 204, 204)" stroke-width="1px"></line></g></g><g transform="translate(39, 0)" clip-path="url(#clip_0)"><clipPath id="clip_0"><rect width="1237" height="378"></rect></clipPath><g><g><g><line x1="0" y1="0" x2="0" y2="378.57999897003174" fill="rgb(0, 0, 0)" stroke="rgb(60, 60, 60)" stroke-width="1px" opacity="0.25"></line><line x1="103.09099992752074" y1="0" x2="103.09099992752074" y2="378.57999897003174" fill="rgb(0, 0, 0)" stroke="rgb(60, 60, 60)" stroke-width="1px" opacity="0.25"></line><line x1="206.18199985504148" y1="0" x2="206.18199985504148" y2="378.57999897003174" fill="rgb(0, 0, 0)" stroke="rgb(60, 60, 60)" stroke-width="1px" opacity="0.25"></line><line x1="309.27299978256224" y1="0" x2="309.27299978256224" y2="378.57999897003174" fill="rgb(0, 0, 0)" stroke="rgb(60, 60, 60)" stroke-width="1px" opacity="0.25"></line><line x1="412.36399971008296" y1="0" x2="412.36399971008296" y2="378.57999897003174" fill="rgb(0, 0, 0)" stroke="rgb(60, 60, 60)" stroke-width="1px" opacity="0.25"></line><line x1="515.4549996376038" y1="0" x2="515.4549996376038" y2="378.57999897003174" fill="rgb(0, 0, 0)" stroke="rgb(60, 60, 60)" stroke-width="1px" opacity="0.25"></line><line x1="618.5459995651245" y1="0" x2="618.5459995651245" y2="378.57999897003174" fill="rgb(0, 0, 0)" stroke="rgb(60, 60, 60)" stroke-width="1px" opacity="0.25"></line><line x1="721.6369994926453" y1="0" x2="721.6369994926453" y2="378.57999897003174" fill="rgb(0, 0, 0)" stroke="rgb(60, 60, 60)" stroke-width="1px" opacity="0.25"></line><line x1="824.7279994201659" y1="0" x2="824.7279994201659" y2="378.57999897003174" fill="rgb(0, 0, 0)" stroke="rgb(60, 60, 60)" stroke-width="1px" opacity="0.25"></line><line x1="927.8189993476867" y1="0" x2="927.8189993476867" y2="378.57999897003174" fill="rgb(0, 0, 0)" stroke="rgb(60, 60, 60)" stroke-width="1px" opacity="0.25"></line><line x1="1030.9099992752076" y1="0" x2="1030.9099992752076" y2="378.57999897003174" fill="rgb(0, 0, 0)" stroke="rgb(60, 60, 60)" stroke-width="1px" opacity="0.25"></line><line x1="1134.000999202728" y1="0" x2="1134.000999202728" y2="378.57999897003174" fill="rgb(0, 0, 0)" stroke="rgb(60, 60, 60)" stroke-width="1px" opacity="0.25"></line><line x1="1237.091999130249" y1="0" x2="1237.091999130249" y2="378.57999897003174" fill="rgb(0, 0, 0)" stroke="rgb(60, 60, 60)" stroke-width="1px" opacity="0.25"></line></g><g><line x1="0" y1="378.57999897003174" x2="1237.091999130249" y2="378.57999897003174" fill="rgb(0, 0, 0)" stroke="rgb(60, 60, 60)" stroke-width="1px" opacity="0.25"></line><line x1="0" y1="336.5155546400282" x2="1237.091999130249" y2="336.5155546400282" fill="rgb(0, 0, 0)" stroke="rgb(60, 60, 60)" stroke-width="1px" opacity="0.25"></line><line x1="0" y1="294.45111031002466" x2="1237.091999130249" y2="294.45111031002466" fill="rgb(0, 0, 0)" stroke="rgb(60, 60, 60)" stroke-width="1px" opacity="0.25"></line><line x1="0" y1="252.38666598002118" x2="1237.091999130249" y2="252.38666598002118" fill="rgb(0, 0, 0)" stroke="rgb(60, 60, 60)" stroke-width="1px" opacity="0.25"></line><line x1="0" y1="210.32222165001764" x2="1237.091999130249" y2="210.32222165001764" fill="rgb(0, 0, 0)" stroke="rgb(60, 60, 60)" stroke-width="1px" opacity="0.25"></line><line x1="0" y1="168.2577773200141" x2="1237.091999130249" y2="168.2577773200141" fill="rgb(0, 0, 0)" stroke="rgb(60, 60, 60)" stroke-width="1px" opacity="0.25"></line><line x1="0" y1="126.19333299001059" x2="1237.091999130249" y2="126.19333299001059" fill="rgb(0, 0, 0)" stroke="rgb(60, 60, 60)" stroke-width="1px" opacity="0.25"></line><line x1="0" y1="84.12888866000702" x2="1237.091999130249" y2="84.12888866000702" fill="rgb(0, 0, 0)" stroke="rgb(60, 60, 60)" stroke-width="1px" opacity="0.25"></line><line x1="0" y1="42.06444433000354" x2="1237.091999130249" y2="42.06444433000354" fill="rgb(0, 0, 0)" stroke="rgb(60, 60, 60)" stroke-width="1px" opacity="0.25"></line><line x1="0" y1="0" x2="1237.091999130249" y2="0" fill="rgb(0, 0, 0)" stroke="rgb(60, 60, 60)" stroke-width="1px" opacity="0.25"></line></g></g></g><g><g><line x1="0" y1="336.5155546400282" x2="1237.091999130249" y2="336.5155546400282" fill="rgb(0, 0, 0)" stroke="rgb(153, 153, 153)" stroke-width="1.5px"></line></g></g><g><g><line x1="103.09099992752074" y1="0" x2="103.09099992752074" y2="378.57999897003174" fill="rgb(0, 0, 0)" stroke="rgb(153, 153, 153)" stroke-width="1.5px"></line></g></g><g><g><g><g><g><path style="fill: none;" stroke="rgb(0, 153, 136)" stroke-width="2px" d="M105.15281992607117,308.5506878170432L107.21463992462158,278.42976629504585L109.27645992317198,244.120793425266L111.3382799217224,248.29265805574133L113.40009992027281,227.8268466375744L115.46191991882324,236.1715547235617L117.52373991737365,246.10908393151772L119.58555991592407,241.5797636300687L121.64737991447447,248.52860302851522L123.7091999130249,226.69254086003767L125.77101991157531,214.24993361909193L127.83283991012573,233.17328526574258L129.89465990867615,218.710310940704L131.95647990722657,205.08213797829293L134.01829990577698,196.94402616029143L136.08011990432738,209.5414241506838L138.1419399028778,221.85331813345383L140.2037599014282,209.8579456795502L142.26557989997863,236.63974599417585L144.32739989852905,207.3147977711588L146.38921989707947,191.51493297861683L148.45103989562986,183.3556560749863L150.5128598941803,189.68769128352156L152.5746798927307,198.25647007134614L154.63649989128112,181.4082756413738L156.69831988983154,186.69781404691847L158.76013988838193,214.24107605482564L160.82195988693238,181.04525992326555L162.88377988548277,159.80347292254376L164.9455998840332,154.94277220724544L167.00741988258363,172.65502844991695L169.06923988113402,144.1155070872678L171.13105987968444,188.86656940193933L173.19287987823486,156.26205184724478L175.25469987678525,165.79269471987521L177.3165198753357,213.30174901533135L179.3783398738861,195.50749611794856L181.4401598724365,168.80664142459318L183.50197987098693,174.94109839252965L185.56379986953735,169.03571857579828L187.62561986808777,160.81920447699065L189.68743986663816,188.23999300797342L191.74925986518858,172.15441560575212L193.81107986373902,155.98135371008934L195.87289986228942,148.1213244803748L197.93471986083983,190.96935836801345L199.99653985939023,195.0732187279083L202.05835985794064,207.06467588166524L204.1201798564911,207.09233170052923L206.18199985504148,198.96785122463672L208.2438198535919,194.01056775694954L210.30563985214235,171.88228619924558L212.36745985069274,181.80312724264195L214.42927984924316,222.11129469270887L216.49109984779355,206.4006153026885L218.55291984634397,188.00711288080618L220.61473984489442,220.3255487606436L222.6765598434448,226.44159258547222L224.73837984199523,210.05077421177435L226.80019984054562,222.43425079271793L228.86201983909606,193.7366251171783L230.92383983764648,145.15585368444013L232.98565983619687,192.9880967514305L235.0474798347473,195.0923940708398L237.10929983329774,199.81260932390776L239.17111983184813,185.22482678353765L241.23293983039855,152.22993454864428L243.29475982894894,162.05202658752145L245.3565798274994,151.0442244103703L247.4183998260498,173.1980998358364L249.4802198246002,193.74686266428316L251.54203982315062,202.24544685992882L253.603859821701,227.89887050933004L255.66567982025146,213.73325841653843L257.7274998188019,108.40118215950986L259.7893198173523,187.00922482538846L261.8511398159027,165.06513888401145L263.91295981445313,145.7067075317167L265.9747798130035,195.33676335745386L268.03659981155397,164.57258128850904L270.09841981010436,182.79642605280577L272.16023980865475,205.42608265449817L274.2220598072052,172.02283584672426L276.2838798057556,227.3169590250293L278.34569980430604,181.71861131693464L280.4075198028564,193.55475621610248L282.4693398014068,164.9192297682992L284.53115979995727,185.95820743068518L286.59297979850766,138.70294160703205L288.6547997970581,123.19312192843014L290.7166197956085,199.3583863679563L292.77843979415894,191.53239136615613L294.84025979270933,217.23615229654158L296.9020797912597,174.56243752014674L298.96389978981017,181.09319025743827L301.0257197883606,188.62871491802835L303.087539786911,159.5087503086334L305.1493597854614,184.4846585463817L307.2111797840118,182.70979201390438L309.27299978256224,151.9589925692314L311.3348197811126,175.0978066762694L313.3966397796631,178.93295549413003L315.45845977821347,214.11954931031377L317.52027977676386,211.24734770332415L319.58209977531436,192.05850180021062L321.64391977386475,194.49590451201746L323.70573977241514,201.02060778965608L325.76755977096553,205.59127141417042L327.829379769516,205.26213748401187L329.8911997680664,218.0695897226426L331.95301976661676,146.05772060839166L334.01483976516727,168.1136814375665L336.07665976371766,210.83159578057627L338.13847976226805,172.89840286518228L340.2002997608185,155.1456457308295L342.2621197593689,122.55876307310712L344.3239397579193,168.38232879435245L346.3857597564697,209.24715885666765L348.4475797550201,226.09504840671056L350.5093997535705,194.96885351416228L352.5712197521209,192.92346220638606L354.6330397506714,193.48288478431152L356.6948597492218,233.2963524562138L358.7566797477722,232.98442017260132L360.81849974632263,221.44813270720834L362.880319744873,192.98666862965567L364.9421397434234,186.33457368044114L367.00395974197386,184.12409791402118L369.0657797405243,216.12991954198284L371.1275997390747,245.8571809013837L373.18941973762514,246.27878972803956L375.25123973617553,221.4540136805844L377.3130597347259,201.28962421161978L379.3748797332763,227.04100257309247L381.43669973182676,242.59511809618175L383.49851973037715,213.79866318456257L385.56033972892754,246.03872887621802L387.62215972747805,222.33027871361782L389.68397972602844,191.6808357991765L391.74579972457883,228.21422065741484L393.8076197231293,209.82347017805367L395.86943972167967,175.52540880048585L397.93125972023006,125.14677647006462L399.99307971878045,160.38163759297467L402.0548997173309,181.03964371403873L404.1167197158813,209.72000355778397L406.17853971443174,227.8679653122706L408.2403597129822,118.69734644237712L410.3021797115326,165.53476629955642L412.36399971008296,217.31647211164085L414.4258197086334,199.527658914052L416.4876397071838,202.80226191214183L418.5494597057342,222.8714004726199L420.6112797042847,229.60161689217924L422.6730997028351,206.42318444062417L424.7349197013855,118.01133450847965L426.79673969993587,178.57468948439646L428.8585596984863,201.38670439968303L430.9203796970367,207.92446135219598L432.9821996955871,156.57704095330786L435.04401969413755,192.24781619009L437.10583969268794,218.59560387882462L439.1676596912383,210.53828524212867L441.22947968978883,242.1008515684432L443.2912996883392,182.71595379774178L445.3531196868896,139.23041597761306L447.41493968544006,192.22117931204292L449.47675968399045,57.35959644564508L451.53857968254084,210.39308216414778L453.60039968109123,180.00167197105372L455.66221967964174,150.09676991380923L457.7240396781921,172.2829144728613L459.7858596767425,199.02654863421284L461.84767967529297,177.9182027647198L463.90949967384336,212.94196662910656L465.97131967239375,214.22089781738936L468.0331396709442,153.21089374482125L470.0949596694946,205.44298744427087L472.156779668045,207.1120285486032L474.2185996665955,194.3875277202523L476.28041966514587,191.523565894514L478.34223966369626,123.77037195907266L480.40405966224665,173.05196607175506L482.4658796607971,204.8985280523568L484.5276996593475,201.18602922085344L486.5895196578979,207.3958476934575L488.6513396564484,186.1414723609117L490.7131596549988,206.50242915281433L492.77497965354917,237.9909818646757L494.8367996520996,240.19375540129892L496.89861965065,187.7410971192008L498.9604396492004,180.4481606045843L501.02225964775084,197.51155212581557L503.08407964630123,214.59306795653728L505.1458996448516,185.38862753721526L507.207719643402,225.26555837338037L509.2695396419525,172.48777773914287L511.3313596405029,186.85686509222143L513.3931796390533,213.08071908963265L515.4549996376038,203.00219093745986L517.5168196361542,173.77340826271765L519.5786396347046,203.71358011390643L521.640459633255,209.58768566840058L523.7022796318054,198.67439626938042L525.7640996303558,204.7612839451659L527.8259196289063,205.11661347978946L529.8877396274567,189.47905713390202L531.949559626007,227.58166701220043L534.0113796245574,195.31492432671766L536.0731996231079,174.58509491279887L538.1350196216583,144.44687947796103L540.1968396202087,165.7065420703361L542.2586596187591,161.4776648930527L544.3204796173095,197.27483693006198L546.3822996158599,221.60601237172972L548.4441196144104,177.728792096968L550.5059396129608,179.4721115799028L552.5677596115112,141.93184470832776L554.6295796100616,160.8434023156021L556.6913996086121,147.30047538609784L558.7532196071625,151.78631820497543L560.8150396057129,179.13326160778186L562.8768596042632,234.3814522177677L564.9386796028136,145.1753980925494L567.000499601364,206.48477820953008L569.0623195999145,200.07169307869606L571.1241395984649,198.7520925124552L573.1859595970153,211.91542788347613L575.2477795955658,196.68372288578533L577.3095995941162,236.8548789001864L579.3714195926666,188.59452022699318L581.433239591217,246.35333287079123L583.4950595897675,200.290259895491L585.5568795883179,209.0930580986403L587.6186995868683,217.9654732267338L589.6805195854187,205.1061833769397L591.742339583969,216.28925139774717L593.8041595825194,249.7627810524165L595.86597958107,233.99210450154183L597.9277995796203,217.4385524539194L599.9896195781707,214.85612317356455L602.0514395767212,232.97468006117086L604.1132595752716,181.53165573493052L606.175079573822,226.21147242398212L608.2368995723724,216.10681285259258L610.2987195709228,201.90803303273873L612.3605395694732,248.29812182500342L614.4223595680236,234.02413294044666L616.4841795665741,254.81836422788476L618.5459995651245,239.65674952134444L620.607819563675,237.8993173069383L622.6696395622253,232.91708984712804L624.7314595607758,230.50241673637768L626.7932795593262,239.7053217080002L628.8550995578765,235.16747279168243L630.9169195564269,251.0168966190729L632.9787395549774,194.2694429096808L635.0405595535277,202.12623078435593L637.1023795520782,265.2652916358675L639.1641995506287,231.6455720550246L641.226019549179,225.3576240889197L643.2878395477295,148.4186947357778L645.3496595462798,181.54569625799752L647.4114795448303,171.59869972591636L649.4732995433807,204.73996641957217L651.5351195419311,217.83808957831394L653.5969395404815,236.10280429946965L655.658759539032,251.61917889655484L657.7205795375824,217.39097513861236L659.7823995361327,180.35079158290367L661.8442195346832,194.13014487454413L663.9060395332335,239.43769329203113L665.967859531784,215.43102241948787L668.0296795303345,201.59951059044252L670.0914995288848,189.8654523287058L672.1533195274353,188.17534241661693L674.2151395259857,221.94554431211392L676.2769595245361,225.07593910357159L678.3387795230865,190.81465587328324L680.400599521637,239.4767500156255L682.4624195201873,217.58150904820957L684.5242395187378,225.74259918510472L686.5860595172883,196.77801101554724L688.6478795158386,179.1452802955272L690.7096995143891,197.03422248047383L692.7715195129394,141.59838629706456L694.8333395114898,180.7244139132945L696.8951595100402,216.05287317454722L698.9569795085906,184.67187086937903L701.018799507141,209.03279617363674L703.0806195056915,190.79766282879413L705.1424395042418,215.38493741120396L707.2042595027923,165.21745047824226L709.2660795013428,215.1160172671127L711.3278994998931,214.72671768982303L713.3897194984436,166.89913607649092L715.451539496994,215.03900299230122L717.5133594955444,220.03625782337116L719.5751794940948,229.81716700230382L721.6369994926453,221.53787170749658L723.6988194911955,191.55155066277555L725.760639489746,229.44356071822503L727.8224594882965,190.23024918745455L729.8842794868468,153.21776156639L731.9460994853973,214.28543608456135L734.0079194839477,190.14273260138893L736.0697394824981,178.06096680326507L738.1315594810486,146.34527052080378L740.193379479599,175.80310627728298L742.2551994781494,151.48350824977848L744.3170194766998,211.8874270689025L746.3788394752503,193.9541489236883L748.4406594738006,210.66715317441557L750.5024794723511,232.68998639230836L752.5642994709013,232.21897097076874L754.6261194694519,201.40746832751014L756.6879394680024,161.9801551557305L758.7497594665526,200.35187773386505L760.8115794651031,182.39669637266633L762.8733994636535,193.72646780163385L764.9352194622039,172.77070631367695L766.9970394607543,195.4657757065495L769.0588594593048,175.99941685922775L771.1206794578551,183.92668013654313L773.1824994564056,163.78793267427685L775.2443194549561,185.80008707148266L777.3061394535064,160.987979587412L779.3679594520569,146.80417899988163L781.4297794506073,143.5066458218344L783.4915994491577,192.83697258429333L785.553419447708,184.99014946941782L787.6152394462586,203.9329412231492L789.6770594448088,223.614529254354L791.7388794433593,127.0501418696511L793.8006994419098,197.8864100222363L795.8625194404601,195.5445791451575L797.9243394390106,181.86065327143643L799.9861594375609,214.7498885644616L802.0479794361114,195.66667553374813L804.1097994346618,178.47759325002113L806.1716194332122,158.43082324857775L808.2334394317626,177.44663374541358L810.2952594303131,246.11823032940137L812.3570794288635,178.1311373259759L814.4188994274139,224.98588720019785L816.4807194259644,219.0064696995452L818.5425394245146,206.8596120364827L820.6043594230651,202.01775771471833L822.6661794216157,207.17459311938975L824.7279994201659,186.44502044646418L826.7898194187164,211.34895295139302L828.8516394172668,202.66988786066614L830.9134594158172,219.29543168742006L832.9752794143676,164.3635299347755L835.0370994129181,195.91484779632438L837.0989194114684,187.17058653963042L839.1607394100189,152.58357922049981L841.2225594085694,223.30784411479056L843.2843794071197,176.09701052927744L845.3461994056702,231.05924783490278L847.4080194042206,209.78418880609024L849.469839402771,178.59709013605533L851.5316594013213,67.8997449036367L853.5934793998717,122.09971017722063L855.6552993984221,198.74286588301115L857.7171193969726,197.9218884182376L859.7789393955229,170.90814668570115L861.8407593940734,193.6910214982567L863.9025793926239,178.3841234821751L865.9643993911742,201.9302571749648L868.0262193897247,185.29408266646013L870.0880393882751,224.1484381960777L872.1498593868255,234.30142925944185L874.2116793853759,209.03851668389206L876.2734993839264,215.85420378472722L878.3353193824767,221.87383334344372L880.3971393810272,197.8356715834502L882.4589593795777,203.43238454107666L884.5207793781279,240.34674896379295L886.5825993766784,199.4304984944284L888.6444193752288,170.6080806498693L890.7062393737792,219.54124514212106L892.7680593723297,181.81529034719597L894.8298793708801,188.9598145214163L896.8916993694305,225.49845454685973L898.9535193679809,157.74431387900586L901.0153393665314,187.40418875084114L903.0771593650817,187.7169313732135L905.1389793636322,197.5542674085634L907.2007993621825,188.53925672820148L909.262619360733,216.63800996757536L911.3244393592835,172.8705946063536L913.3862593578338,132.88478954274893L915.4480793563843,205.97692045546268L917.5098993549346,158.40279034137998L919.571719353485,198.78811648306706L921.6335393520354,199.78366177692163L923.6953593505859,229.98500340346868L925.7571793491362,207.0364985576588L927.8189993476867,192.98777582518895L929.8808193462372,145.39335514948544L931.9426393447875,192.28045438885377L934.004459343338,181.49755732176783L936.0662793418884,189.64914804191366L938.1280993404388,176.33711149687915L940.1899193389892,190.33819272879364L942.2517393375397,152.81570517099948L944.31355933609,165.27147841100407L946.3753793346405,157.41714562207667L948.437199333191,213.79716285438337L950.4990193317412,230.1258739771889L952.5608393302917,148.66991579764857L954.622659328842,219.80944320216886L956.6844793273925,238.3536766565424L958.7462993259429,222.57635693246803L960.8081193244933,192.19122084739593L962.8699393230437,209.77157640479805L964.9317593215942,189.05880422061665L966.9935793201446,161.20657849683113L969.055399318695,181.68605334973128L971.1172193172455,227.04222209281028L973.1790393157958,192.6083928687626L975.2408593143463,170.13055844878266L977.3026793128968,168.02056468858618L979.364499311447,143.89355449862467L981.4263193099976,184.6571724475169L983.4881393085479,230.20407567909407L985.5499593070983,197.9481080921707L987.6117793056487,190.80128929532347L989.6735993041992,157.0193735920106L991.7354193027495,145.01986118959118L993.7972393013,150.99056554278624L995.8590592998505,222.50179774340427L997.9208792984008,146.4140289680519L999.9826992969513,191.75861227381162L1002.0445192955017,213.7313248359332L1004.1063392940521,223.2817608345101L1006.1681592926025,181.24553394429321L1008.2299792911529,158.87018731954632L1010.2917992897032,180.42543902668388L1012.3536192882538,200.00473181840053L1014.415439286804,195.22028317809006L1016.4772592853545,139.65726392516189L1018.539079283905,206.27304712167972L1020.6008992824553,175.60766219619035L1022.6627192810058,227.89622286783742L1024.7245392795562,157.71416285861397L1026.7863592781066,202.24696323642002L1028.848179276657,156.52171326926785L1030.9099992752076,194.0985175934412L1032.9718192737578,199.51759787638002L1035.0336392723084,173.7702150466144L1037.0954592708588,195.77818135636824L1039.1572792694092,231.42863393890542L1041.2190992679596,166.96182901777408L1043.28091926651,183.60007350053664L1045.3427392650603,214.08784179765044L1047.4045592636107,154.03474349945648L1049.4663792621614,157.55758294537083L1051.5281992607115,192.39531389069782L1053.5900192592621,172.4163876967142L1055.6518392578125,196.3130370305045L1057.713659256363,191.92157861926128L1059.7754792549133,182.04069289293557L1061.8372992534637,184.12189956926667L1063.899119252014,223.6149705279361L1065.9609392505645,169.09563550509222L1068.0227592491149,182.55066073704103L1070.0845792476653,196.6768871568407L1072.1463992462159,178.7430634370159L1074.208219244766,184.36845115432317L1076.2700392433167,179.03449655695056L1078.331859241867,188.58216456669422L1080.3936792404174,206.28229782059188L1082.4554992389678,222.41892656468482L1084.5173192375182,148.33223720630923L1086.5791392360686,136.47085145824494L1088.640959234619,201.73129895152738L1090.7027792331696,180.5051571050803L1092.7645992317198,181.24407372989424L1094.8264192302704,179.3687572838176L1096.8882392288208,214.00184961123213L1098.9500592273712,134.1249608642108L1101.0118792259216,165.29251512613644L1103.073699224472,183.1415019940124L1105.1355192230224,155.8593535993712L1107.1973392215727,209.61199583119657L1109.2591592201231,215.54581773608362L1111.3209792186735,150.07517157775416L1113.3827992172241,167.76669598522275L1115.4446192157743,159.7913258643018L1117.506439214325,227.8784676235247L1119.5682592128753,240.17687468099436L1121.6300792114257,154.9295821387185L1123.691899209976,195.9396233021706L1125.7537192085265,169.81239217292844L1127.8155392070769,197.11848166518791L1129.8773592056273,166.36302879001272L1131.939179204178,157.90357352636582L1134.000999202728,198.78108819837755" fill="none"></path></g></g></g></g></g><g><g opacity="0.0915927"><span fill="rgb(0, 0, 0)" stroke="none" stroke-width="1px">Alt + Scroll to Zoom</span></g></g></g><g transform="translate(39, 378)" clip-path="url(#clip_1)"><clipPath id="clip_1"><rect width="1237" height="21"></rect></clipPath><g><g><line x1="0" y1="0" x2="0" y2="5" style="visibility: inherit;" fill="rgb(0, 0, 0)" stroke="rgb(204, 204, 204)" stroke-width="1px"></line><line x1="103.09099992752074" y1="0" x2="103.09099992752074" y2="5" style="visibility: inherit;" fill="rgb(0, 0, 0)" stroke="rgb(204, 204, 204)" stroke-width="1px"></line><line x1="206.18199985504148" y1="0" x2="206.18199985504148" y2="5" style="visibility: inherit;" fill="rgb(0, 0, 0)" stroke="rgb(204, 204, 204)" stroke-width="1px"></line><line x1="309.27299978256224" y1="0" x2="309.27299978256224" y2="5" style="visibility: inherit;" fill="rgb(0, 0, 0)" stroke="rgb(204, 204, 204)" stroke-width="1px"></line><line x1="412.36399971008296" y1="0" x2="412.36399971008296" y2="5" style="visibility: inherit;" fill="rgb(0, 0, 0)" stroke="rgb(204, 204, 204)" stroke-width="1px"></line><line x1="515.4549996376038" y1="0" x2="515.4549996376038" y2="5" style="visibility: inherit;" fill="rgb(0, 0, 0)" stroke="rgb(204, 204, 204)" stroke-width="1px"></line><line x1="618.5459995651245" y1="0" x2="618.5459995651245" y2="5" style="visibility: inherit;" fill="rgb(0, 0, 0)" stroke="rgb(204, 204, 204)" stroke-width="1px"></line><line x1="721.6369994926453" y1="0" x2="721.6369994926453" y2="5" style="visibility: inherit;" fill="rgb(0, 0, 0)" stroke="rgb(204, 204, 204)" stroke-width="1px"></line><line x1="824.7279994201659" y1="0" x2="824.7279994201659" y2="5" style="visibility: inherit;" fill="rgb(0, 0, 0)" stroke="rgb(204, 204, 204)" stroke-width="1px"></line><line x1="927.8189993476867" y1="0" x2="927.8189993476867" y2="5" style="visibility: inherit;" fill="rgb(0, 0, 0)" stroke="rgb(204, 204, 204)" stroke-width="1px"></line><line x1="1030.9099992752076" y1="0" x2="1030.9099992752076" y2="5" style="visibility: inherit;" fill="rgb(0, 0, 0)" stroke="rgb(204, 204, 204)" stroke-width="1px"></line><line x1="1134.000999202728" y1="0" x2="1134.000999202728" y2="5" style="visibility: inherit;" fill="rgb(0, 0, 0)" stroke="rgb(204, 204, 204)" stroke-width="1px"></line><line x1="1237.091999130249" y1="0" x2="1237.091999130249" y2="5" style="visibility: inherit;" fill="rgb(0, 0, 0)" stroke="rgb(204, 204, 204)" stroke-width="1px"></line></g><g transform="translate(0, 8)"><text style="text-anchor: middle; visibility: hidden; font-family: &quot;Helvetica Neue&quot;, sans-serif; font-size: 12px; font-weight: 200;" x="0" y="0" dx="0em" dy="0.95em" fill="rgb(50, 49, 63)" stroke="none" stroke-width="1px">-1M</text><text style="text-anchor: middle; visibility: inherit; font-family: &quot;Helvetica Neue&quot;, sans-serif; font-size: 12px; font-weight: 200;" x="103.09099992752074" y="0" dx="0em" dy="0.95em" fill="rgb(50, 49, 63)" stroke="none" stroke-width="1px">0</text><text style="text-anchor: middle; visibility: inherit; font-family: &quot;Helvetica Neue&quot;, sans-serif; font-size: 12px; font-weight: 200;" x="206.18199985504148" y="0" dx="0em" dy="0.95em" fill="rgb(50, 49, 63)" stroke="none" stroke-width="1px">1M</text><text style="text-anchor: middle; visibility: inherit; font-family: &quot;Helvetica Neue&quot;, sans-serif; font-size: 12px; font-weight: 200;" x="309.27299978256224" y="0" dx="0em" dy="0.95em" fill="rgb(50, 49, 63)" stroke="none" stroke-width="1px">2M</text><text style="text-anchor: middle; visibility: inherit; font-family: &quot;Helvetica Neue&quot;, sans-serif; font-size: 12px; font-weight: 200;" x="412.36399971008296" y="0" dx="0em" dy="0.95em" fill="rgb(50, 49, 63)" stroke="none" stroke-width="1px">3M</text><text style="text-anchor: middle; visibility: inherit; font-family: &quot;Helvetica Neue&quot;, sans-serif; font-size: 12px; font-weight: 200;" x="515.4549996376038" y="0" dx="0em" dy="0.95em" fill="rgb(50, 49, 63)" stroke="none" stroke-width="1px">4M</text><text style="text-anchor: middle; visibility: inherit; font-family: &quot;Helvetica Neue&quot;, sans-serif; font-size: 12px; font-weight: 200;" x="618.5459995651245" y="0" dx="0em" dy="0.95em" fill="rgb(50, 49, 63)" stroke="none" stroke-width="1px">5M</text><text style="text-anchor: middle; visibility: inherit; font-family: &quot;Helvetica Neue&quot;, sans-serif; font-size: 12px; font-weight: 200;" x="721.6369994926453" y="0" dx="0em" dy="0.95em" fill="rgb(50, 49, 63)" stroke="none" stroke-width="1px">6M</text><text style="text-anchor: middle; visibility: inherit; font-family: &quot;Helvetica Neue&quot;, sans-serif; font-size: 12px; font-weight: 200;" x="824.7279994201659" y="0" dx="0em" dy="0.95em" fill="rgb(50, 49, 63)" stroke="none" stroke-width="1px">7M</text><text style="text-anchor: middle; visibility: inherit; font-family: &quot;Helvetica Neue&quot;, sans-serif; font-size: 12px; font-weight: 200;" x="927.8189993476867" y="0" dx="0em" dy="0.95em" fill="rgb(50, 49, 63)" stroke="none" stroke-width="1px">8M</text><text style="text-anchor: middle; visibility: inherit; font-family: &quot;Helvetica Neue&quot;, sans-serif; font-size: 12px; font-weight: 200;" x="1030.9099992752076" y="0" dx="0em" dy="0.95em" fill="rgb(50, 49, 63)" stroke="none" stroke-width="1px">9M</text><text style="text-anchor: middle; visibility: inherit; font-family: &quot;Helvetica Neue&quot;, sans-serif; font-size: 12px; font-weight: 200;" x="1134.000999202728" y="0" dx="0em" dy="0.95em" fill="rgb(50, 49, 63)" stroke="none" stroke-width="1px">10M</text><text style="text-anchor: middle; visibility: hidden; font-family: &quot;Helvetica Neue&quot;, sans-serif; font-size: 12px; font-weight: 200;" x="1237.091999130249" y="0" dx="0em" dy="0.95em" fill="rgb(50, 49, 63)" stroke="none" stroke-width="1px">11M</text></g><line x1="0" y1="0" x2="1237.091999130249" y2="0" fill="rgb(0, 0, 0)" stroke="rgb(204, 204, 204)" stroke-width="1px"></line></g></g></g></g></svg>