<svg viewBox="0 0 1277.0833740234375 400" xmlns="http://www.w3.org/2000/svg"><g><g><g><g><g><line x1="59.98000144958496" y1="378.57999897003174" x2="54.98000144958496" y2="378.57999897003174" style="visibility: inherit;" fill="rgb(0, 0, 0)" stroke="rgb(204, 204, 204)" stroke-width="1px"></line><line x1="59.98000144958496" y1="347.03166572252906" x2="54.98000144958496" y2="347.03166572252906" style="visibility: inherit;" fill="rgb(0, 0, 0)" stroke="rgb(204, 204, 204)" stroke-width="1px"></line><line x1="59.98000144958496" y1="315.48333247502643" x2="54.98000144958496" y2="315.48333247502643" style="visibility: inherit;" fill="rgb(0, 0, 0)" stroke="rgb(204, 204, 204)" stroke-width="1px"></line><line x1="59.98000144958496" y1="283.93499922752375" x2="54.98000144958496" y2="283.93499922752375" style="visibility: inherit;" fill="rgb(0, 0, 0)" stroke="rgb(204, 204, 204)" stroke-width="1px"></line><line x1="59.98000144958496" y1="252.38666598002106" x2="54.98000144958496" y2="252.38666598002106" style="visibility: inherit;" fill="rgb(0, 0, 0)" stroke="rgb(204, 204, 204)" stroke-width="1px"></line><line x1="59.98000144958496" y1="220.8383327325184" x2="54.98000144958496" y2="220.8383327325184" style="visibility: inherit;" fill="rgb(0, 0, 0)" stroke="rgb(204, 204, 204)" stroke-width="1px"></line><line x1="59.98000144958496" y1="189.28999948501576" x2="54.98000144958496" y2="189.28999948501576" style="visibility: inherit;" fill="rgb(0, 0, 0)" stroke="rgb(204, 204, 204)" stroke-width="1px"></line><line x1="59.98000144958496" y1="157.74166623751307" x2="54.98000144958496" y2="157.74166623751307" style="visibility: inherit;" fill="rgb(0, 0, 0)" stroke="rgb(204, 204, 204)" stroke-width="1px"></line><line x1="59.98000144958496" y1="126.19333299001065" x2="54.98000144958496" y2="126.19333299001065" style="visibility: inherit;" fill="rgb(0, 0, 0)" stroke="rgb(204, 204, 204)" stroke-width="1px"></line><line x1="59.98000144958496" y1="94.64499974250799" x2="54.98000144958496" y2="94.64499974250799" style="visibility: inherit;" fill="rgb(0, 0, 0)" stroke="rgb(204, 204, 204)" stroke-width="1px"></line><line x1="59.98000144958496" y1="63.09666649500531" x2="54.98000144958496" y2="63.09666649500531" style="visibility: inherit;" fill="rgb(0, 0, 0)" stroke="rgb(204, 204, 204)" stroke-width="1px"></line><line x1="59.98000144958496" y1="31.548333247502683" x2="54.98000144958496" y2="31.548333247502683" style="visibility: inherit;" fill="rgb(0, 0, 0)" stroke="rgb(204, 204, 204)" stroke-width="1px"></line><line x1="59.98000144958496" y1="0" x2="54.98000144958496" y2="0" style="visibility: inherit;" fill="rgb(0, 0, 0)" stroke="rgb(204, 204, 204)" stroke-width="1px"></line></g><g transform="translate(49.98000144958496, 0)"><text style="text-anchor: end; visibility: hidden; font-family: &quot;Helvetica Neue&quot;, sans-serif; font-size: 12px; font-weight: 200;" x="0" y="378.57999897003174" dx="0em" dy="0.3em" fill="rgb(50, 49, 63)" stroke="none" stroke-width="1px">0.086</text><text style="text-anchor: end; visibility: inherit; font-family: &quot;Helvetica Neue&quot;, sans-serif; font-size: 12px; font-weight: 200;" x="0" y="347.03166572252906" dx="0em" dy="0.3em" fill="rgb(50, 49, 63)" stroke="none" stroke-width="1px">0.088</text><text style="text-anchor: end; visibility: inherit; font-family: &quot;Helvetica Neue&quot;, sans-serif; font-size: 12px; font-weight: 200;" x="0" y="315.48333247502643" dx="0em" dy="0.3em" fill="rgb(50, 49, 63)" stroke="none" stroke-width="1px">0.09</text><text style="text-anchor: end; visibility: inherit; font-family: &quot;Helvetica Neue&quot;, sans-serif; font-size: 12px; font-weight: 200;" x="0" y="283.93499922752375" dx="0em" dy="0.3em" fill="rgb(50, 49, 63)" stroke="none" stroke-width="1px">0.092</text><text style="text-anchor: end; visibility: inherit; font-family: &quot;Helvetica Neue&quot;, sans-serif; font-size: 12px; font-weight: 200;" x="0" y="252.38666598002106" dx="0em" dy="0.3em" fill="rgb(50, 49, 63)" stroke="none" stroke-width="1px">0.094</text><text style="text-anchor: end; visibility: inherit; font-family: &quot;Helvetica Neue&quot;, sans-serif; font-size: 12px; font-weight: 200;" x="0" y="220.8383327325184" dx="0em" dy="0.3em" fill="rgb(50, 49, 63)" stroke="none" stroke-width="1px">0.096</text><text style="text-anchor: end; visibility: inherit; font-family: &quot;Helvetica Neue&quot;, sans-serif; font-size: 12px; font-weight: 200;" x="0" y="189.28999948501576" dx="0em" dy="0.3em" fill="rgb(50, 49, 63)" stroke="none" stroke-width="1px">0.098</text><text style="text-anchor: end; visibility: inherit; font-family: &quot;Helvetica Neue&quot;, sans-serif; font-size: 12px; font-weight: 200;" x="0" y="157.74166623751307" dx="0em" dy="0.3em" fill="rgb(50, 49, 63)" stroke="none" stroke-width="1px">0.1</text><text style="text-anchor: end; visibility: inherit; font-family: &quot;Helvetica Neue&quot;, sans-serif; font-size: 12px; font-weight: 200;" x="0" y="126.19333299001065" dx="0em" dy="0.3em" fill="rgb(50, 49, 63)" stroke="none" stroke-width="1px">0.102</text><text style="text-anchor: end; visibility: inherit; font-family: &quot;Helvetica Neue&quot;, sans-serif; font-size: 12px; font-weight: 200;" x="0" y="94.64499974250799" dx="0em" dy="0.3em" fill="rgb(50, 49, 63)" stroke="none" stroke-width="1px">0.104</text><text style="text-anchor: end; visibility: inherit; font-family: &quot;Helvetica Neue&quot;, sans-serif; font-size: 12px; font-weight: 200;" x="0" y="63.09666649500531" dx="0em" dy="0.3em" fill="rgb(50, 49, 63)" stroke="none" stroke-width="1px">0.106</text><text style="text-anchor: end; visibility: inherit; font-family: &quot;Helvetica Neue&quot;, sans-serif; font-size: 12px; font-weight: 200;" x="0" y="31.548333247502683" dx="0em" dy="0.3em" fill="rgb(50, 49, 63)" stroke="none" stroke-width="1px">0.108</text><text style="text-anchor: end; visibility: hidden; font-family: &quot;Helvetica Neue&quot;, sans-serif; font-size: 12px; font-weight: 200;" x="0" y="0" dx="0em" dy="0.3em" fill="rgb(50, 49, 63)" stroke="none" stroke-width="1px">0.11</text></g><line x1="59.98000144958496" y1="0" x2="59.98000144958496" y2="378.57999897003174" fill="rgb(0, 0, 0)" stroke="rgb(204, 204, 204)" stroke-width="1px"></line></g></g><g transform="translate(59, 0)" clip-path="url(#clip_0)"><clipPath id="clip_0"><rect width="1217" height="378"></rect></clipPath><g><g><g><line x1="0" y1="0" x2="0" y2="378.57999897003174" fill="rgb(0, 0, 0)" stroke="rgb(60, 60, 60)" stroke-width="1px" opacity="0.25"></line><line x1="101.42499987920124" y1="0" x2="101.42499987920124" y2="378.57999897003174" fill="rgb(0, 0, 0)" stroke="rgb(60, 60, 60)" stroke-width="1px" opacity="0.25"></line><line x1="202.84999975840248" y1="0" x2="202.84999975840248" y2="378.57999897003174" fill="rgb(0, 0, 0)" stroke="rgb(60, 60, 60)" stroke-width="1px" opacity="0.25"></line><line x1="304.27499963760374" y1="0" x2="304.27499963760374" y2="378.57999897003174" fill="rgb(0, 0, 0)" stroke="rgb(60, 60, 60)" stroke-width="1px" opacity="0.25"></line><line x1="405.69999951680495" y1="0" x2="405.69999951680495" y2="378.57999897003174" fill="rgb(0, 0, 0)" stroke="rgb(60, 60, 60)" stroke-width="1px" opacity="0.25"></line><line x1="507.1249993960063" y1="0" x2="507.1249993960063" y2="378.57999897003174" fill="rgb(0, 0, 0)" stroke="rgb(60, 60, 60)" stroke-width="1px" opacity="0.25"></line><line x1="608.5499992752075" y1="0" x2="608.5499992752075" y2="378.57999897003174" fill="rgb(0, 0, 0)" stroke="rgb(60, 60, 60)" stroke-width="1px" opacity="0.25"></line><line x1="709.9749991544088" y1="0" x2="709.9749991544088" y2="378.57999897003174" fill="rgb(0, 0, 0)" stroke="rgb(60, 60, 60)" stroke-width="1px" opacity="0.25"></line><line x1="811.3999990336099" y1="0" x2="811.3999990336099" y2="378.57999897003174" fill="rgb(0, 0, 0)" stroke="rgb(60, 60, 60)" stroke-width="1px" opacity="0.25"></line><line x1="912.8249989128112" y1="0" x2="912.8249989128112" y2="378.57999897003174" fill="rgb(0, 0, 0)" stroke="rgb(60, 60, 60)" stroke-width="1px" opacity="0.25"></line><line x1="1014.2499987920125" y1="0" x2="1014.2499987920125" y2="378.57999897003174" fill="rgb(0, 0, 0)" stroke="rgb(60, 60, 60)" stroke-width="1px" opacity="0.25"></line><line x1="1115.6749986712136" y1="0" x2="1115.6749986712136" y2="378.57999897003174" fill="rgb(0, 0, 0)" stroke="rgb(60, 60, 60)" stroke-width="1px" opacity="0.25"></line><line x1="1217.099998550415" y1="0" x2="1217.099998550415" y2="378.57999897003174" fill="rgb(0, 0, 0)" stroke="rgb(60, 60, 60)" stroke-width="1px" opacity="0.25"></line></g><g><line x1="0" y1="378.57999897003174" x2="1217.099998550415" y2="378.57999897003174" fill="rgb(0, 0, 0)" stroke="rgb(60, 60, 60)" stroke-width="1px" opacity="0.25"></line><line x1="0" y1="347.03166572252906" x2="1217.099998550415" y2="347.03166572252906" fill="rgb(0, 0, 0)" stroke="rgb(60, 60, 60)" stroke-width="1px" opacity="0.25"></line><line x1="0" y1="315.48333247502643" x2="1217.099998550415" y2="315.48333247502643" fill="rgb(0, 0, 0)" stroke="rgb(60, 60, 60)" stroke-width="1px" opacity="0.25"></line><line x1="0" y1="283.93499922752375" x2="1217.099998550415" y2="283.93499922752375" fill="rgb(0, 0, 0)" stroke="rgb(60, 60, 60)" stroke-width="1px" opacity="0.25"></line><line x1="0" y1="252.38666598002106" x2="1217.099998550415" y2="252.38666598002106" fill="rgb(0, 0, 0)" stroke="rgb(60, 60, 60)" stroke-width="1px" opacity="0.25"></line><line x1="0" y1="220.8383327325184" x2="1217.099998550415" y2="220.8383327325184" fill="rgb(0, 0, 0)" stroke="rgb(60, 60, 60)" stroke-width="1px" opacity="0.25"></line><line x1="0" y1="189.28999948501576" x2="1217.099998550415" y2="189.28999948501576" fill="rgb(0, 0, 0)" stroke="rgb(60, 60, 60)" stroke-width="1px" opacity="0.25"></line><line x1="0" y1="157.74166623751307" x2="1217.099998550415" y2="157.74166623751307" fill="rgb(0, 0, 0)" stroke="rgb(60, 60, 60)" stroke-width="1px" opacity="0.25"></line><line x1="0" y1="126.19333299001065" x2="1217.099998550415" y2="126.19333299001065" fill="rgb(0, 0, 0)" stroke="rgb(60, 60, 60)" stroke-width="1px" opacity="0.25"></line><line x1="0" y1="94.64499974250799" x2="1217.099998550415" y2="94.64499974250799" fill="rgb(0, 0, 0)" stroke="rgb(60, 60, 60)" stroke-width="1px" opacity="0.25"></line><line x1="0" y1="63.09666649500531" x2="1217.099998550415" y2="63.09666649500531" fill="rgb(0, 0, 0)" stroke="rgb(60, 60, 60)" stroke-width="1px" opacity="0.25"></line><line x1="0" y1="31.548333247502683" x2="1217.099998550415" y2="31.548333247502683" fill="rgb(0, 0, 0)" stroke="rgb(60, 60, 60)" stroke-width="1px" opacity="0.25"></line><line x1="0" y1="0" x2="1217.099998550415" y2="0" fill="rgb(0, 0, 0)" stroke="rgb(60, 60, 60)" stroke-width="1px" opacity="0.25"></line></g></g></g><g><g><line x1="0" y1="1735.158328612645" x2="1217.099998550415" y2="1735.158328612645" fill="rgb(0, 0, 0)" stroke="rgb(153, 153, 153)" stroke-width="1.5px"></line></g></g><g><g><line x1="101.42499987920124" y1="0" x2="101.42499987920124" y2="378.57999897003174" fill="rgb(0, 0, 0)" stroke="rgb(153, 153, 153)" stroke-width="1.5px"></line></g></g><g><g><g><g><g><path style="fill: none;" stroke="rgb(0, 153, 136)" stroke-width="2px" d="M103.45349987678527,136.67004567529546L105.48199987436931,129.02845965562815L107.51049987195333,265.8866561751347L109.53899986953735,208.02649897315814L111.56749986712137,132.60561981681877L113.5959998647054,143.82283815057957L115.62449986228943,101.46033921503533L117.65299985987345,190.1667890945561L119.68149985745747,162.6980962419768L121.7099998550415,182.5584631309264L123.73849985262552,185.89716161826428L125.76699985020954,224.05044180120336L127.79549984779356,237.75476015569933L129.8239998453776,165.30848177078076L131.85249984296163,187.03305717163374L133.88099984054566,216.36454821571917L135.90949983812968,269.6740716022309L137.9379998357137,211.1317894347338L139.96649983329772,240.62640753811323L141.99499983088174,186.29722250431394L144.02349982846576,160.53513485923372L146.05199982604978,173.50526392020674L148.08049982363383,163.55980200476057L150.10899982121785,191.56124338744064L152.13749981880187,293.4572446764229L154.16599981638592,238.3284079773234L156.1944998139699,198.5893400342586L158.22299981155396,135.43695554120828L160.25149980913795,179.57575301722082L162.279999806722,211.7650232931461L164.30849980430602,195.71510706444957L166.33699980189004,253.42318471691138L168.36549979947407,197.97397023421283L170.39399979705811,173.72268831479892L172.4224997946421,186.42614929397212L174.45099979222616,143.9957199259553L176.47949978981015,214.63984389645404L178.5079997873942,234.61961791237965L180.53649978497825,223.7018576096572L182.56499978256224,147.72860296435383L184.5934997801463,213.4552922893758L186.62199977773028,154.84989828409704L188.65049977531433,166.22366218196422L190.67899977289835,166.07111252565036L192.70749977048237,178.9461624865017L194.7359997680664,226.51109831448812L196.7644997656504,214.43405464514L198.79299976323443,186.10835709776816L200.82149976081848,219.2825011178462L202.84999975840248,251.93870497199572L204.87849975598652,188.91830296279775L206.90699975357055,235.7517526113562L208.93549975115457,216.52273915362244L210.96399974873862,252.83848938550807L212.9924997463226,281.16559725327727L215.02099974390666,184.96164908801896L217.04949974149068,236.72640153262813L219.0779997390747,148.28309393391385L221.10649973665872,220.45412478794867L223.13499973424274,172.86838673410128L225.16349973182676,229.3351473834913L227.1919997294108,191.18809611564052L229.2204997269948,234.50573454029325L231.24899972457885,196.97123243169358L233.27749972216287,220.60796723796014L235.3059997197469,199.13149070034177L237.3344997173309,188.10043465903178L239.36299971491493,216.11092559759484L241.39149971249896,219.22479550825443L243.419999710083,188.86012724640688L245.448499707667,196.5482538391869L247.47699970525105,131.7669492871918L249.50549970283507,139.9589128419268L251.5339997004191,167.00110130100603L253.56249969800314,230.3058003969707L255.59099969558713,311.0890702841523L257.6194996931712,237.85289495001527L259.6479996907552,278.0704140878826L261.6764996883392,198.5798203715765L263.70499968592327,170.89229280400767L265.73349968350726,247.5158226791913L267.7619996810913,131.59312729821784L269.79049967867536,241.50268661166967L271.81899967625935,240.83313700302548L273.8474996738434,227.6033914622394L275.8759996714274,220.18710412604952L277.90449966901144,115.21660437083386L279.93299966659544,248.29702265262608L281.9614996641795,218.98938952859595L283.9899996617635,164.46099673867027L286.0184996593475,161.63918067696295L288.0469996569315,244.95503341769438L290.07549965451557,197.16080299843802L292.10399965209956,188.070465350588L294.1324996496836,276.9854075955177L296.16099964726766,210.80706316324287L298.18949964485165,180.55463289968483L300.2179996424357,189.88977866317566L302.2464996400197,166.44990107903988L304.27499963760374,79.83589656239451L306.30349963518773,223.5820979025818L308.33199963277184,189.47949295424522L310.36049963035583,289.89030933811307L312.3889996279398,196.12433503308202L314.4174996255239,244.389024831556L316.4459996231079,195.3693435136981L318.4744996206919,257.3508094968447L320.5029996182759,206.45234635631064L322.53149961585996,241.52619195162558L324.559999613444,259.03097119689335L326.588499611028,235.64985696264733L328.61699960861205,146.56638143023375L330.64549960619604,253.79891757610665L332.6739996037801,252.47392156279184L334.70249960136414,139.81647048179397L336.73099959894813,225.7165002972785L338.7594995965321,202.39602984011873L340.78799959411623,252.3487556275266L342.8164995917002,191.41915360740714L344.8449995892842,213.24985561816112L346.87349958686826,206.07144232232508L348.9019995844523,192.4384626745953L350.9304995820363,229.66657267686966L352.9589995796203,177.85716008634427L354.9874995772044,173.31263765926803L357.0159995747884,223.56599674471198L359.0444995723724,246.62403008126398L361.0729995699565,177.33369616552605L363.1014995675405,203.23329004934834L365.1299995651245,235.56159441111288L367.1584995627085,206.6871647024702L369.1869995602926,235.59849779484364L371.21549955787657,210.802714675351L373.24399955546056,196.71561185967303L375.2724995530446,246.6733912951714L377.30099955062866,240.6829378807072L379.32949954821265,157.6256438794908L381.3579995457967,181.57911314166327L383.3864995433807,183.10261175090577L385.41499954096474,227.54216005165426L387.4434995385488,249.46077203384334L389.4719995361328,256.70782092235066L391.5004995337168,190.01353427804355L393.5289995313008,222.51378020158555L395.5574995288849,184.57005012435343L397.58599952646887,248.93495757902957L399.61449952405286,263.5630357937929L401.64299952163697,208.62800062262994L403.67149951922096,211.19525385261477L405.69999951680495,266.6193176215605L407.72849951438906,187.04986348970226L409.75699951197305,229.0715349958857L411.78549950955704,225.5093007255671L413.8139995071411,121.79903977208778L415.84249950472514,201.43137068832806L417.87099950230913,247.90648142925858L419.8994994998931,215.5195312443041L421.92799949747723,147.7496402436144L423.9564994950612,229.37205076722208L425.9849994926452,210.10824940635356L428.01349949022926,207.46060791371954L430.0419994878133,233.5863231679177L432.0704994853973,177.8656220087284L434.09899948298136,151.31963127611843L436.12749948056535,189.77660045128795L438.1559994781494,191.80405354918523L440.18449947573345,180.22050449221152L442.21299947331744,209.6795120055577L444.24149947090143,169.89120037528534L446.2699994684855,123.83613005936695L448.29849946606953,213.91517426561325L450.3269994636535,212.73309071923038L452.3554994612375,222.6918331517516L454.3839994588216,231.72340744971183L456.4124994564056,192.1107982356099L458.4409994539896,234.4094801731738L460.4694994515737,152.59103511433378L462.4979994491577,223.49395287774712L464.5264994467417,230.28370537741216L466.55499944432574,224.64348152829103L468.5834994419098,178.82898836682145L470.6119994394938,174.87915104062984L472.6404994370778,207.39150221424916L474.6689994346618,184.7593856376983L476.6974994322459,193.28300953921126L478.72599942982987,193.08356672968534L480.7544994274139,180.77264492777593L482.7829994249979,135.17393078710163L484.81149942258196,168.9388815269715L486.839999420166,204.6179896261512L488.86849941775,265.9292008404549L490.896999415334,238.8256634440907L492.9254994129181,207.448620190342L494.9539994105021,206.44964324221573L496.9824994080861,254.9212975590015L499.01099940567013,235.71449664752606L501.0394994032542,165.48853267484304L503.0679994008382,205.18717143318364L505.09649939842217,105.6244277149251L507.1249993960063,229.9679111351045L509.15349939359027,198.4014148413111L511.18199939117426,276.60368087463365L513.2104993887583,181.1040702211543L515.2389993863424,135.15700694233337L517.2674993839263,218.49248664192797L519.2959993815105,229.5023878772776L521.3244993790944,248.8961737681023L523.3529993766784,147.53668186361384L525.3814993742624,238.58438112944327L527.4099993718465,181.24004861279926L529.4384993694305,170.81002411416196L531.4669993670145,152.38407059602196L533.4954993645986,146.29042873915128L535.5239993621826,169.80305535045065L537.5524993597666,229.89492705454137L539.5809993573507,200.3085205986341L541.6094993549347,204.88747834874573L543.6379993525187,172.48477958602078L545.6664993501026,314.7559033172747L547.6949993476868,262.3345292009971L549.7234993452707,240.0985951294032L551.7519993428548,245.21006635621603L553.7804993404388,105.51124950303739L555.8089993380229,220.6767203573312L557.8374993356068,221.96446040681587L559.8659993331909,198.01580973933434L561.8944993307749,209.94829556795358L563.922999328359,188.71791993967364L565.951499325943,187.5941296363814L567.979999323527,198.16424596115593L570.008499321111,212.86848147737643L572.036999318695,202.19529423689522L574.0654993162791,157.00369258425735L576.093999313863,224.97337897457228L578.1224993114471,234.43298551312972L580.1509993090311,186.50289422892814L582.1794993066152,218.83930793297748L584.2079993041991,76.75716713496905L586.2364993017833,146.0189420626605L588.2649992993672,194.65407601883967L590.2934992969513,176.72831613496152L592.3219992945353,170.42347879858696L594.3504992921194,229.58371635352506L596.3789992897033,204.41043747434048L598.4074992872874,222.7268561082859L600.4359992848714,124.4990981728235L602.4644992824554,180.23872113067736L604.4929992800394,136.5064485092023L606.5214992776234,189.76614057500757L608.5499992752075,176.3302532028081L610.5784992727915,241.83634491234383L612.6069992703755,179.14043412123732L614.6354992679595,230.659673290007L616.6639992655437,270.3091858878397L618.6924992631276,188.31327551233255L620.7209992607117,196.3832463526964L622.7494992582957,253.79950520960554L624.7779992558796,277.34950531143477L626.8064992534637,190.03986025879416L628.8349992510477,228.43030932188842L630.8634992486317,254.60773632398963L632.8919992462158,206.08295993890349L634.9204992437998,188.04378678973805L636.9489992413838,256.09950272429165L638.9774992389679,198.37426617366202L641.0059992365518,169.79659138196277L643.0344992341359,156.7302079538703L645.0629992317199,230.3580997783726L647.0914992293038,230.4756264781522L649.119999226888,264.20578931488734L651.1484992244721,104.38499113904982L653.176999222056,234.1067313945416L655.20549921964,187.35590301592825L657.2339992172241,204.76301757367918L659.262499214808,200.18793820466027L661.2909992123921,198.39824162041705L663.3194992099762,207.91990225645807L665.3479992075602,159.83432314844816L667.3764992051442,215.8703484431461L669.4049992027283,257.0581680143936L671.4334992003122,215.12699206704033L673.4619991978963,235.19925959569247L675.4904991954803,132.5986857415318L677.5189991930642,282.5358410460072L679.5474991906484,124.84333387647786L681.5759991882325,237.68694724992653L683.6044991858164,267.15077335796366L685.6329991834004,205.63365536564618L687.6614991809844,248.85915285767175L689.6899991785684,210.61984313049402L691.7184991761526,219.9306608671305L693.7469991737365,167.17938930457163L695.7754991713206,173.52923936696178L697.8039991689046,163.4108956761399L699.8324991664886,124.92619019982243L701.8609991640726,243.98108965662112L703.8894991616567,191.10065625100452L705.9179991592406,234.17454430031444L707.9464991568248,190.8567883489619L709.9749991544088,295.28596012499287L712.0034991519927,221.8877154718598L714.0319991495768,182.56245903871888L716.0604991471608,207.8611389065683L718.0889991447448,253.44527973646996L720.1174991423288,238.10781036183712L722.145999139913,140.5679362001845L724.1744991374969,217.36951902553423L726.202999135081,199.35302852942624L728.231499132665,150.20935654330088L730.259999130249,222.09855837126435L732.288499127833,240.6777667059169L734.316999125417,214.57978775286668L736.345499123001,238.5244425125557L738.3739991205852,188.19962719364574L740.4024991181691,167.70637902638322L742.4309991157531,206.11821794883735L744.4594991133372,233.13643096116152L746.4879991109211,173.02869315260057L748.5164991085052,182.69244356867512L750.5449991060892,186.91012424366434L752.5734991036732,224.6259700500239L754.6019991012573,205.66503499448734L756.6304990988414,172.56375752827265L758.6589990964253,129.38891404385205L760.6874990940094,212.67620779653708L762.7159990915934,171.59110656089697L764.7444990891773,203.17417411935924L766.7729990867614,228.74704377779435L768.8014990843456,195.64212298388648L770.8299990819295,182.7206499766222L772.8584990795135,174.89525219849963L774.8869990770976,159.38983716988184L776.9154990746815,160.6169334422803L778.9439990722656,178.23970949412674L780.9724990698496,133.20958952698595L783.0009990674336,230.49913181810808L785.0294990650177,219.342322208034L787.0579990626017,159.1640683796053L789.0864990601857,201.11686923971794L791.1149990577698,195.57478018491278L793.1434990553537,213.33329957500462L795.1719990529377,234.41723693535926L797.2004990505218,233.13936912865603L799.2289990481057,201.76091555450995L801.2574990456899,211.61917265871966L803.2859990432739,235.65361781704027L805.3144990408579,230.03866220837176L807.3429990384419,164.3263111407229L809.371499036026,160.70484341371542L811.3999990336099,223.63474986408303L813.428499031194,279.96329911453233L815.4569990287781,258.73233585275347L817.485499026362,225.3730872805226L819.5139990239461,174.9696465994601L821.5424990215301,187.87525350225414L823.5709990191141,118.65014690489386L825.5994990166981,251.73350335418058L827.6279990142822,197.77076657029394L829.6564990118661,184.62340724605338L831.6849990094503,242.0701055182054L833.7134990070343,274.769441671174L835.7419990046183,182.51098234421545L837.7704990022023,219.357248098906L839.7989989997862,190.8661904849443L841.8274989973703,208.84072394923095L843.8559989949545,241.40290644355682L845.8844989925384,258.3407368890879L847.9129989901224,238.48683396862623L849.9414989877065,248.84493212699843L851.9699989852904,249.19151836464835L853.9984989828745,153.17972635352965L856.0269989804585,219.3158787005836L858.0554989780425,203.58445982828968L860.0839989756266,244.17747677195277L862.1124989732107,186.9588978240729L864.1409989707946,242.04507233115234L866.1694989683787,183.50972423894223L868.1979989659627,195.98612363414125L870.2264989635466,170.33862452134613L872.2549989611307,175.33997323046552L874.2834989587149,213.04935506833718L876.3119989562988,201.91205489042648L878.3404989538828,227.67378995540736L880.3689989514669,204.5022258268683L882.3974989490508,172.65578093420004L884.4259989466349,165.26017829717136L886.4544989442189,217.04338243364592L888.4829989418029,264.71996862642294L890.511498939387,212.71945762205596L892.539998936971,191.7235477598362L894.568498934555,214.06889918892492L896.5969989321391,226.2070567421584L898.625498929723,209.20964025983903L900.653998927307,174.95307533479118L902.6824989248911,229.38274569690202L904.710998922475,175.84122460502536L906.7394989200592,200.94939369253208L908.7679989176432,218.93662004039496L910.7964989152272,218.26836322544833L912.8249989128112,247.3409429499193L914.8534989103953,170.16926854696376L916.8819989079792,247.53356921085805L918.9104989055633,191.3709676604975L920.9389989031474,260.0599174534634L922.9674989007314,219.4107227473057L924.9959988983154,155.62322396864656L927.0244988958995,217.2615119884368L929.0529988934834,183.23518186825711L931.0814988910674,242.44677859099892L933.1099988886515,297.5058044304293L935.1384988862354,253.23831521815814L937.1669988838196,169.84230926817705L939.1954988814035,243.7034915917418L941.2239988789876,169.45776190649826L943.2524988765716,248.70319492706426L945.2809988741556,246.41777072315085L947.3094988717396,216.21000060550904L949.3379988693237,134.50003269056558L951.3664988669076,233.90376278402232L953.3949988644918,182.88119144852107L955.4234988620758,199.09987601810104L957.4519988596597,242.40705456647342L959.4804988572438,269.02685206654485L961.5089988548278,225.0176865403892L963.5374988524118,149.6176096099108L965.5659988499958,145.86286660535325L967.59449884758,126.35602002934061L969.6229988451639,208.33042301878808L971.651498842748,244.88357718422841L973.679998840332,223.63686534467908L975.708498837916,184.06962143669207L977.7369988355,199.87461202304794L979.765498833084,208.1128810974961L981.793998830668,178.9999897150007L983.8224988282522,246.32104624923227L985.8509988258362,214.6635842898095L987.8794988234201,193.5468569802164L989.9079988210042,188.00970404680194L991.9364988185881,226.89047450137656L993.9649988161722,168.52671539084457L995.9934988137563,261.5820057423085L998.0219988113403,144.15109022306387L1000.0504988089243,199.8553376442841L1002.0789988065084,299.28210297089765L1004.1074988040923,209.2487766508656L1006.1359988016764,194.05316200286677L1008.1644987992604,243.91445201784612L1010.1929987968443,248.8151978719542L1012.2214987944285,143.7839368129525L1014.2499987920125,265.71212902596204L1016.2784987895965,246.33432676630736L1018.3069987871805,259.62177791668523L1020.3354987847646,280.95134607957914L1022.3639987823485,194.9525938362798L1024.3924987799326,219.28720218583737L1026.4209987775166,201.9062960821373L1028.4494987751007,106.68980724842686L1030.4779987726847,185.90397816685152L1032.5064987702688,150.53596324198833L1034.5349987678526,141.58301430618062L1036.5634987654369,240.15806363949164L1038.591998763021,223.20342687589203L1040.6204987606047,110.23323724678073L1042.6489987581888,297.1506387436955L1044.6774987557728,246.02910992697983L1046.7059987533569,158.97931640755183L1048.734498750941,179.419442506514L1050.7629987485248,254.18393504458453L1052.791498746109,190.34977816611288L1054.819998743693,179.90847110429678L1056.848498741277,233.97451385728962L1058.876998738861,207.39843628953614L1060.905498736445,147.5919194125102L1062.933998734029,181.68735523216026L1064.962498731613,210.5617849408029L1066.9909987291971,174.56899807991158L1069.0194987267812,159.7535823056996L1071.0479987243652,203.60737753474672L1073.0764987219493,215.4148149548005L1075.1049987195331,226.669524305791L1077.1334987171172,227.79014138818914L1079.1619987147014,195.6074526074515L1081.1904987122853,194.00321315546043L1083.2189987098693,168.52883087144062L1085.2474987074534,206.95336267747092L1087.2759987050374,238.93602101518374L1089.3044987026215,153.3824599106494L1091.3329987002053,226.22750638792004L1093.3614986977893,197.56192162478567L1095.3899986953736,168.84004157245687L1097.4184986929574,154.372739882992L1099.4469986905415,159.97182938719027L1101.4754986881255,184.76103101149525L1103.5039986857096,175.7720013788552L1105.5324986832936,130.25825904212152L1107.5609986808777,185.30435694457617L1109.5894986784615,188.47734278522483L1111.6179986760458,177.46591370277807L1113.6464986736298,162.59467274617083L1115.6749986712136,193.16383746563477" fill="none"></path></g></g></g></g></g></g><g transform="translate(59, 378)" clip-path="url(#clip_1)"><clipPath id="clip_1"><rect width="1217" height="21"></rect></clipPath><g><g><line x1="0" y1="0" x2="0" y2="5" style="visibility: inherit;" fill="rgb(0, 0, 0)" stroke="rgb(204, 204, 204)" stroke-width="1px"></line><line x1="101.42499987920124" y1="0" x2="101.42499987920124" y2="5" style="visibility: inherit;" fill="rgb(0, 0, 0)" stroke="rgb(204, 204, 204)" stroke-width="1px"></line><line x1="202.84999975840248" y1="0" x2="202.84999975840248" y2="5" style="visibility: inherit;" fill="rgb(0, 0, 0)" stroke="rgb(204, 204, 204)" stroke-width="1px"></line><line x1="304.27499963760374" y1="0" x2="304.27499963760374" y2="5" style="visibility: inherit;" fill="rgb(0, 0, 0)" stroke="rgb(204, 204, 204)" stroke-width="1px"></line><line x1="405.69999951680495" y1="0" x2="405.69999951680495" y2="5" style="visibility: inherit;" fill="rgb(0, 0, 0)" stroke="rgb(204, 204, 204)" stroke-width="1px"></line><line x1="507.1249993960063" y1="0" x2="507.1249993960063" y2="5" style="visibility: inherit;" fill="rgb(0, 0, 0)" stroke="rgb(204, 204, 204)" stroke-width="1px"></line><line x1="608.5499992752075" y1="0" x2="608.5499992752075" y2="5" style="visibility: inherit;" fill="rgb(0, 0, 0)" stroke="rgb(204, 204, 204)" stroke-width="1px"></line><line x1="709.9749991544088" y1="0" x2="709.9749991544088" y2="5" style="visibility: inherit;" fill="rgb(0, 0, 0)" stroke="rgb(204, 204, 204)" stroke-width="1px"></line><line x1="811.3999990336099" y1="0" x2="811.3999990336099" y2="5" style="visibility: inherit;" fill="rgb(0, 0, 0)" stroke="rgb(204, 204, 204)" stroke-width="1px"></line><line x1="912.8249989128112" y1="0" x2="912.8249989128112" y2="5" style="visibility: inherit;" fill="rgb(0, 0, 0)" stroke="rgb(204, 204, 204)" stroke-width="1px"></line><line x1="1014.2499987920125" y1="0" x2="1014.2499987920125" y2="5" style="visibility: inherit;" fill="rgb(0, 0, 0)" stroke="rgb(204, 204, 204)" stroke-width="1px"></line><line x1="1115.6749986712136" y1="0" x2="1115.6749986712136" y2="5" style="visibility: inherit;" fill="rgb(0, 0, 0)" stroke="rgb(204, 204, 204)" stroke-width="1px"></line><line x1="1217.099998550415" y1="0" x2="1217.099998550415" y2="5" style="visibility: inherit;" fill="rgb(0, 0, 0)" stroke="rgb(204, 204, 204)" stroke-width="1px"></line></g><g transform="translate(0, 8)"><text style="text-anchor: middle; visibility: hidden; font-family: &quot;Helvetica Neue&quot;, sans-serif; font-size: 12px; font-weight: 200;" x="0" y="0" dx="0em" dy="0.95em" fill="rgb(50, 49, 63)" stroke="none" stroke-width="1px">-1M</text><text style="text-anchor: middle; visibility: hidden; font-family: &quot;Helvetica Neue&quot;, sans-serif; font-size: 12px; font-weight: 200;" x="101.42499987920124" y="0" dx="0em" dy="0.95em" fill="rgb(50, 49, 63)" stroke="none" stroke-width="1px">0</text><text style="text-anchor: middle; visibility: hidden; font-family: &quot;Helvetica Neue&quot;, sans-serif; font-size: 12px; font-weight: 200;" x="202.84999975840248" y="0" dx="0em" dy="0.95em" fill="rgb(50, 49, 63)" stroke="none" stroke-width="1px">1M</text><text style="text-anchor: middle; visibility: hidden; font-family: &quot;Helvetica Neue&quot;, sans-serif; font-size: 12px; font-weight: 200;" x="304.27499963760374" y="0" dx="0em" dy="0.95em" fill="rgb(50, 49, 63)" stroke="none" stroke-width="1px">2M</text><text style="text-anchor: middle; visibility: hidden; font-family: &quot;Helvetica Neue&quot;, sans-serif; font-size: 12px; font-weight: 200;" x="405.69999951680495" y="0" dx="0em" dy="0.95em" fill="rgb(50, 49, 63)" stroke="none" stroke-width="1px">3M</text><text style="text-anchor: middle; visibility: hidden; font-family: &quot;Helvetica Neue&quot;, sans-serif; font-size: 12px; font-weight: 200;" x="507.1249993960063" y="0" dx="0em" dy="0.95em" fill="rgb(50, 49, 63)" stroke="none" stroke-width="1px">4M</text><text style="text-anchor: middle; visibility: hidden; font-family: &quot;Helvetica Neue&quot;, sans-serif; font-size: 12px; font-weight: 200;" x="608.5499992752075" y="0" dx="0em" dy="0.95em" fill="rgb(50, 49, 63)" stroke="none" stroke-width="1px">5M</text><text style="text-anchor: middle; visibility: hidden; font-family: &quot;Helvetica Neue&quot;, sans-serif; font-size: 12px; font-weight: 200;" x="709.9749991544088" y="0" dx="0em" dy="0.95em" fill="rgb(50, 49, 63)" stroke="none" stroke-width="1px">6M</text><text style="text-anchor: middle; visibility: hidden; font-family: &quot;Helvetica Neue&quot;, sans-serif; font-size: 12px; font-weight: 200;" x="811.3999990336099" y="0" dx="0em" dy="0.95em" fill="rgb(50, 49, 63)" stroke="none" stroke-width="1px">7M</text><text style="text-anchor: middle; visibility: hidden; font-family: &quot;Helvetica Neue&quot;, sans-serif; font-size: 12px; font-weight: 200;" x="912.8249989128112" y="0" dx="0em" dy="0.95em" fill="rgb(50, 49, 63)" stroke="none" stroke-width="1px">8M</text><text style="text-anchor: middle; visibility: hidden; font-family: &quot;Helvetica Neue&quot;, sans-serif; font-size: 12px; font-weight: 200;" x="1014.2499987920125" y="0" dx="0em" dy="0.95em" fill="rgb(50, 49, 63)" stroke="none" stroke-width="1px">9M</text><text style="text-anchor: middle; visibility: hidden; font-family: &quot;Helvetica Neue&quot;, sans-serif; font-size: 12px; font-weight: 200;" x="1115.6749986712136" y="0" dx="0em" dy="0.95em" fill="rgb(50, 49, 63)" stroke="none" stroke-width="1px">10M</text><text style="text-anchor: middle; visibility: hidden; font-family: &quot;Helvetica Neue&quot;, sans-serif; font-size: 12px; font-weight: 200;" x="1217.099998550415" y="0" dx="0em" dy="0.95em" fill="rgb(50, 49, 63)" stroke="none" stroke-width="1px">11M</text></g><line x1="0" y1="0" x2="1217.099998550415" y2="0" fill="rgb(0, 0, 0)" stroke="rgb(204, 204, 204)" stroke-width="1px"></line></g></g></g></g></svg>